<svg xmlns="http://www.w3.org/2000/svg" viewBox="0 0 368.01 52.85"><defs><style>.cls-1{fill:#f05456;}.cls-2{fill:#fff;}.cls-3{fill:none;}.cls-4{font-size:36px;fill:#231f20;font-family:Sora-Bold, Sora;font-weight:700;letter-spacing:-0.02em;}.cls-5{letter-spacing:0.01em;}.cls-6{letter-spacing:-0.02em;}.cls-7{letter-spacing:0.01em;}</style></defs><g id="Layer_2" data-name="Layer 2"><g id="Layer_1-2" data-name="Layer 1"><rect class="cls-1" x="1.6" y="2.1" width="48.83" height="48.83" rx="10.09"/><path class="cls-1" d="M40.59,52.54c-.3,0-.2.26-.24.31C40.87,52.77,40.57,52.47,40.59,52.54Z"/><path class="cls-1" d="M45.17,50.8l0,.14c.17-.19.35-.36.5-.56C45.49,50.53,45.33,50.66,45.17,50.8Z"/><path class="cls-1" d="M48.69,48.12c-.62,0-1,1.23-1.82,1.56l-.17,0-.07.53C47.41,49.58,48.17,48.56,48.69,48.12Z"/><path class="cls-1" d="M51,46.68c-.24,0,.15-.55-.36.49l.1-.07Z"/><path class="cls-1" d="M50.69,47.1c-.26.45.31-.2,0,0Z"/><path class="cls-1" d="M51.61,44.94c0,.22,0,.46-.09.69.16-.09.39-.66.39-.41C52.07,44.52,51.91,44.63,51.61,44.94Z"/><path class="cls-1" d="M51.49,44.24c0,.11,0,.22,0,.34C51.51,44.54,51.56,44.46,51.49,44.24Z"/><path class="cls-1" d="M51.33,45.31l.12-.73c-.11.06-.26,0-.07.33C51.27,44.8,51.35,45,51.33,45.31Z"/><path class="cls-1" d="M51.1,45.66c-.25.29-.51.67-.38,0-.23.57-.27.85-.18.85S50.86,46.24,51.1,45.66Z"/><path class="cls-1" d="M48.46,47.64l-.4.23-.14.39C48,48.07,48.59,47.72,48.46,47.64Z"/><path class="cls-1" d="M52.59,40.86c-.1,0-.28.22-.42.27l.1.49C52.35,41.37,52.43,40.89,52.59,40.86Z"/><path class="cls-1" d="M52.17,41.13a5.09,5.09,0,0,0-.16-.67C52,41,52.06,41.18,52.17,41.13Z"/><path class="cls-1" d="M51,44c0,.39,0,.78,0,1.2a9.74,9.74,0,0,0,.08-1.42Z"/><polygon class="cls-1" points="52.6 38.48 52.83 38.83 52.48 38.2 52.6 38.48"/><path class="cls-1" d="M52.56,36.9c.19.26.33-.36.45-.08a3.43,3.43,0,0,0-.36-1.12A2,2,0,0,1,52.56,36.9Z"/><path class="cls-1" d="M52.44,35.15a4.32,4.32,0,0,0,.21.55A1.69,1.69,0,0,0,52.44,35.15Z"/><path class="cls-1" d="M52.06,39.4a.61.61,0,0,0,.29-.49l-.28.25Z"/><path class="cls-1" d="M52.06,39.17h0v-.53Z"/><path class="cls-1" d="M52.06,39.46V39.4S52,39.44,52.06,39.46Z"/><path class="cls-1" d="M51.63,42.25c-.09-.44-.25-1.26-.52-.49C51.27,42.07,51.47,41.61,51.63,42.25Z"/><path class="cls-1" d="M51.71,39.77l-.07.66c.08,0,.19-.13.27,0Z"/><polygon class="cls-1" points="51.62 39.45 51.71 39.77 51.73 39.52 51.62 39.45"/><path class="cls-1" d="M52.17,36.28a2.87,2.87,0,0,1-.15-1,7.4,7.4,0,0,0-.09,1.14C52,36.52,52.18,36.68,52.17,36.28Z"/><path class="cls-1" d="M52.09,37.68v-.06S52,37.69,52.09,37.68Z"/><polygon class="cls-1" points="52.02 31.86 51.97 31.91 52.02 31.93 52.02 31.86"/><path class="cls-1" d="M51.88,36.53a.82.82,0,0,0,.1.62,4.94,4.94,0,0,1,0-.68S51.86,36.44,51.88,36.53Z"/><path class="cls-1" d="M52.3,34.18a3.14,3.14,0,0,0-.15.49C52.24,34.52,52.38,34.23,52.3,34.18Z"/><path class="cls-1" d="M52.15,37.52l0,0C52.23,37.47,52.2,37.48,52.15,37.52Z"/><path class="cls-1" d="M52.15,37.52a1.8,1.8,0,0,0-.17-.37,2.17,2.17,0,0,0,.1.47A.86.86,0,0,1,52.15,37.52Z"/><path class="cls-1" d="M50.19,30.8c.27.05.51.8.23,1.45.19.63,1.06.22,1.55-.34-.12,0-.22,0-.38-.67-.14.23-.34,1.45-.58.9-.13-.87.1-.71.24-1.13-.33.36-.48-1.1-1-.91l.17.75C50.38,30.87,50.26,30.59,50.19,30.8Z"/><path class="cls-1" d="M51.94,33.16l0,.26a2.87,2.87,0,0,1,.36-.92c-.13-.45-.23-.54-.31-.58l0,1.33Z"/><path class="cls-1" d="M52,34.63c-.28-.21-.41-.85-.72-.46,0,.79.24.55.37,1-.07-1.27.16.37.32-.55a6.37,6.37,0,0,1,.08.69,4.53,4.53,0,0,1,.13-.66l0,0h0c0,.06-.06.08,0,0v0a.21.21,0,0,1-.1-.06c.05-.37.07-.06.1.06h.05L52,33.42A6.69,6.69,0,0,0,52,34.63Z"/><path class="cls-1" d="M50.53,41s0,0,.06,0S50.54,40.87,50.53,41Z"/><path class="cls-1" d="M50.71,40.5a.61.61,0,0,1,.12.48c-.1.27-.14,0-.24,0,.07.18.18.66.35.07l0-.09c.11-.53.46-1.18.5-1.09A2,2,0,0,0,50.71,40.5Z"/><path class="cls-1" d="M51.27,37.53l-.14-1.06-.25.54L51,37C51,37.58,51.15,37.45,51.27,37.53Z"/><polygon class="cls-1" points="52.16 31.73 52.46 31.88 52.04 31.26 52.16 31.73"/><polygon class="cls-1" points="52.13 30.36 52.39 30.41 52.23 30.04 52.13 30.36"/><path class="cls-1" d="M3.22,11.6l.06.26A1.71,1.71,0,0,0,3.22,11.6Z"/><path class="cls-1" d="M3.57,9.73l-.12-.08C3.5,9.76,3.54,9.81,3.57,9.73Z"/><path class="cls-1" d="M40.52.45c-.5-.26-1-.64-.93-.34l.14.29A1.57,1.57,0,0,1,40.52.45Z"/><path class="cls-1" d="M17.3,2.16l.14.09.3-.28Z"/><path class="cls-1" d="M17,3.36l-.6-.19A2.66,2.66,0,0,0,17,3.36Z"/><path class="cls-1" d="M3.49,23.81l.3.37C3.78,23.61,3.64,23.86,3.49,23.81Z"/><path class="cls-1" d="M52,16.23a4.13,4.13,0,0,0,.17-1C52,15.73,51.78,16.11,52,16.23Z"/><path class="cls-1" d="M.27,10.38c0,.22.07.32.13.32C.39,10.47.35,10.34.27,10.38Z"/><path class="cls-1" d="M52.19,14.12c0,.07,0,.14-.07.21a3.91,3.91,0,0,1,.07.93A1.37,1.37,0,0,0,52.19,14.12Z"/><path class="cls-1" d="M23.54,49.28l.1,0S23.6,49.28,23.54,49.28Z"/><path class="cls-1" d="M36.56,52.2l-.53,0A1.66,1.66,0,0,0,36.56,52.2Z"/><path class="cls-1" d="M52.25,24.81c0,.29,0,0,0,0Z"/><path class="cls-1" d="M51.11,26.23a.21.21,0,0,0-.14-.12A.28.28,0,0,1,51.11,26.23Z"/><path class="cls-1" d="M50.35,11.22v0C50.29,11.28,50.3,11.27,50.35,11.22Z"/><path class="cls-1" d="M52.12,25.25c0-.11.06-.24.09-.38A1.47,1.47,0,0,0,52.12,25.25Z"/><path class="cls-1" d="M52.26,25.19l0,.25C52.28,25.48,52.31,25.45,52.26,25.19Z"/><path class="cls-1" d="M52.24,24.4a3.48,3.48,0,0,1,0,.47c0-.05,0-.08,0-.06Z"/><path class="cls-1" d="M3.11,44.17v.06C3.31,44.44,3.25,44.34,3.11,44.17Z"/><path class="cls-1" d="M32.88,3.44l0,0h-.05Z"/><path class="cls-1" d="M31.83,3.65a1,1,0,0,1,1-.24l-.34-.83Z"/><path class="cls-1" d="M3.27,16.89l.26-.74c.42.89.28,1.54.64.85-.9-.11-.09-2.87-1-3l.19-.49c0,.14,0,.16,0,.3.44-.93-.66-.74-.51-1.89.09-.37.23-.61.33-.35a4.77,4.77,0,0,1-.13-.83c.05-.24.2-.15.14.08a10.33,10.33,0,0,1,.2-1.22l0,0a4.34,4.34,0,0,1-.16-.9c.24-.25,0,.2.17.16a6.23,6.23,0,0,1,.09-.74c.35-.14.26.46.08.89.52-.14.54-.26.54-.51a1.18,1.18,0,0,1,.6-1.05l-.22.59c.63-.08.73-.57,1.4-.86-.22,0-1.47.6-1.23-.11a1.35,1.35,0,0,0,.5-.74c.25.22.42-.14.78-.47l.26.34c.28-.43.12-.57.25-.9a.79.79,0,0,1,1,.08c.79-.41-.81-.13.07-.76a9,9,0,0,0,2-1c.57,0,0,.28.18.34a4.16,4.16,0,0,1,.42-.42c.12,0,.09.1.08.16.4-.19,0-.45.63-.63.08-.23.44-.09.9.07a1.85,1.85,0,0,0,1.51,0c.23.12-.11.26,0,.43a9.16,9.16,0,0,0,2.15-.73l.89.28c-.65-.32.19-.7.92-1a6.1,6.1,0,0,0-.56-.35l1.17-.23c.14.07,0,.22-.17.39l.22-.1c.42.16.2.41-.1.64l-.42-.26c-.29.26-.57.55-.51.79a1.32,1.32,0,0,1,.39-.11c-.08.07-.12.13-.09.17s.16,0,.35-.15l.27.47.07-.19,1.53.3a11.28,11.28,0,0,1,3.81-1.38c-.44.35-.1.57-.12,1-.48-.43-1.35.19-2.26.1.48,0,.37.24.25.31l1.62-.4c0,.34.34.26.76.4-.32-.67,1.2-.45,1.86-.65,0,.22-.12.45-.92.4.89.5,1.14-.79,2-.36-.19,0-.3,0-.38.09.46-.2,1.58,0,1.31.15H27.2c1.3.08,3.95,0,4.15-.56a3.17,3.17,0,0,1-.25.8L33.42,1.5c-.21.49.58,1.65-.5,1.92a2.5,2.5,0,0,0,1.34,0c-.21-.07-.52-.7-.24-.75a6.42,6.42,0,0,0,1.53.76c-.32-.11,0-.87.53-.85-.07.12.05.76-.14.83l1.25-.74c-.31.13-.06.63.22.84-.13-.14,1.08,0,1.41-.06l-.53-.17c1.4.13,1.4-1.09,2.77-1-.19.15-.43.93.18,1.06a5.57,5.57,0,0,1,1.09-.95,3,3,0,0,1,2-.5l.16.29c.34,0,.68.14,1,.21-.43.11-1.15.24-1.85.47a9,9,0,0,0-1,.35l-.79.31c.42.24.08.26.74.41.16.25-.43.21-.61.18a8.27,8.27,0,0,1,1.38.55c.1-.47,1.24.07,1.36-.26A8.81,8.81,0,0,0,43,4.14c0-.23.36-.44.86-.53A2.26,2.26,0,0,1,45.45,4c.16.31-.62.55-.67.7a1.33,1.33,0,0,1,.62.16c.24.13.45.28.46.35l-.53-.09c.38.48,1.21.17,1.45,1,.17.22.07.94.29.82.17-.64,1.24-1.77,1.78-1.74,0,0,.19.47.33.92a4.08,4.08,0,0,1,.18,1.16c-.07.32-.35.25-.65.21s-.59-.08-.64.16a.74.74,0,0,1,.47.16c0,.31-.39.07-.08.6.49-.11.42,1.18.48.1.32.55.18.64.36,1.34.11-.15.39-.06.69.17a2.26,2.26,0,0,1,.67.94c-.13,0-.25.14-.31.22,0,1.36-.22,2.1-.21,3.38-.11.12-.24.73-.43.47a1.52,1.52,0,0,1,.24.75c-.39.76-.06-.88-.53-.3.26.05.36,1,.53,1.58.4-.17.07-1.3-.09-1.86.56,0,1.15,1,1.41,2.31.14,1.07-.36.47-.28.65-.1,2,1,1.7.57,3.36-.36.65-.71,0-1,.17-.13-.86.23-1.33.21-1.91l-.16.72a2.11,2.11,0,0,1-.11-1.17c-.32.55-.06,3.37-.36,4.91.12.28.25.75.39.52l-.05-.48c.29-.45.4.91.53.3a4.39,4.39,0,0,1,.36,2.3L51,27.1c.12,0,.25-.6.12-.86.18.38-.55,1.41,0,1.83l.29-.65a5.2,5.2,0,0,1,.51,2.29c.4-.38,0-.19.42-.77-.58.5,0-2.09-.59-1.28.55-.6.23-1,.7-1.81-.14,0-.26.28-.19-.41a.61.61,0,0,1-.12-.15v0l0,0s0,0,0,0a.81.81,0,0,1-.21.35c-.31-.34-.3-1.43-.46-1.8.07-.4.16.17.3-.05l-.24-.55c.3-.05.5-1.08.67-.12l0-.86a3.22,3.22,0,0,0,.11-1.64c.06-.4-.33-1-.1-.67L52,18.61h.08c0-1.34-.5-2.75,0-4.27A5.54,5.54,0,0,1,52,12.67l.26-.15a9.21,9.21,0,0,1,0-1.26,1.51,1.51,0,0,0-.2-1,2.58,2.58,0,0,0-.18-2.13,8.09,8.09,0,0,0-.59-1.22c-.19-.38-.4-.72-.54-1L50.5,6a4.6,4.6,0,0,0-.73-1,8.41,8.41,0,0,0-1-.94l-.18.25c-.74-.42-1.42-1.66-2.66-2.29.13,0,.42.15.59.34a2.33,2.33,0,0,0-1-.8,4.26,4.26,0,0,0-1.23-.36A9.15,9.15,0,0,1,42,.74a1.75,1.75,0,0,1-.88-.09H41a4.81,4.81,0,0,0-.5-.18,2.78,2.78,0,0,0,.42.18,4,4,0,0,0-1.06.09L39.73.4h-.09c-.35-.12-.28.15-.09.39a2,2,0,0,0-.49.19c-.29-.52-1,.18-1.35-.38-.25.27-1.84.21-2,.77,0-.07-.12-.11.07-.11a2.06,2.06,0,0,0-1.18,0L34.4.89l-.89.55c-.54-.25-.76-.39-.23-.71-1.29.49-1.05.19-2.15.66l.05-.26c-.39,0-1,.36-1.26.15C29,.77,25.56,1.21,23.3.74c.44.78-1.05-.35-1.14.25C22,.81,21.71.71,22.08.55c-1.15.18-1.73-.29-2.53.21-.13-.18.25-.27.13-.37s-.37.16-.49,0,.17-.16.35-.24c-1.17,0-1.29.6-1.38,1.13a1.08,1.08,0,0,0-1.33.13c-.21-.17-.55-.35.18-.42-.41,0-2.52-.25-2.56.17a1.05,1.05,0,0,0-.68,0c-.93,0-1-.06-1.92,0l.25.07c-.34.5-.77.12-1.55.24l0-.06c-.91-.05-1.11,0-1.29.12A3.85,3.85,0,0,1,8,1.8l.2.27c0,.36-.36.36-.87.43-.25,0-.54.08-.82.15a1.9,1.9,0,0,0-.7.42l.41,0c-.18.24-.63.24-1.11.27a2.65,2.65,0,0,0-1.27.23c-.13.05.1-.21.21-.37-1.46.8.09.43-.64,1.33-.32,0-.23-.61-.81,0-.21.09-.43.69-.68,1.32a8,8,0,0,1-.39,1,2.06,2.06,0,0,1-.5.79c.26-.15.52-.28.41.25C1.21,8.51.07,9.72.56,10.57c-.06.1-.11.13-.16.13,0,.32.06.84.11,1.31a2.13,2.13,0,0,0,.32,1c-1.1.52.53,3.48-.48,3.47L.4,18.21l-.1,0A2.56,2.56,0,0,0,.72,20c-.07.26-.17.07-.22.05a4.6,4.6,0,0,0,.35,3.12l-.33.14c.19.36-.52,2.32-.14,3.9a.28.28,0,0,1-.14-.18c.38,1.78-.92,4.25.28,4.9l.3,1.17c.09-1.51.52.23.72-.39.07.59-.36,1.54-.43.8l.07-.11C.55,33.17,1,35.32.53,35.28c0,1.49-.07,3-.15,4.41L.31,40.77c0,.39,0,.81,0,1.21s.08.8.14,1.2.17.78.28,1.16a5.58,5.58,0,0,1,.37-.48,9,9,0,0,0,.31,1c0,.31-.22.51-.47-.24-.14.51.71,1.13.82,1.09.51,1.45-.78-.28-.58.14.11.19.21.38.33.56a.77.77,0,0,1,0-.15,3,3,0,0,1,1.12,1.07c.28.53-.06.42.07.62,0,0,0,.1.22.29a10.26,10.26,0,0,0,.94,1,4.81,4.81,0,0,1-.13-.66c.56.29.91.87.75.14.08.57,1,1.41,2.13,2a24.51,24.51,0,0,0,2.5,1,19,19,0,0,1,2.68.08c-.25-.09-.37-.51.43-.46-.29.89,1.47.39,2.12,1-.58-.43,2.29-.11,1.38-.71.67.07,0,.33.55.54,1.59-.34,3.51.23,5.48.11,0-.12-.3-.3.13-.47l1,.58c.39-.05.36-.67,1.07-.26-.1-.1-.25-.25,0-.29,3.86.57,7.89-.47,11.82.61-.53-.23-.18-.25.23-.26-.27-.06,0-.29-.05-.45l1.64.44c.3-.44,1.76,0,1.94-.45l-.52.08c.69-.5-1-1.11-.87-1.75-.78.57-2-.83-3.31,0-.29-.13.23-.21.08-.36-.32.28-.71.33-1.43.21l.08-.07a38.88,38.88,0,0,1-5.17-.38l.17.32a2.66,2.66,0,0,1-.82-.22c-.56.47,1.38,0,.86.55-.64-.64-3.44,0-3.88-.74-.75,0,.22.37-.53.36l-.2-.2-.19.26c-.5,0-.74-.29-.76-.46a2,2,0,0,0,.47-.06,8.3,8.3,0,0,0-2,0l.73.12c-2.06.18-4.56-.08-6.55.32l.15.15c-1.51.28-1.21-.16-2.87,0l.06,0A2.94,2.94,0,0,1,11.8,50c.21-.09,0-.17-.17-.27s-.29-.19-.05-.27a4.74,4.74,0,0,0-1,.22,2.56,2.56,0,0,1-.75.38l-.17-.3a1.33,1.33,0,0,1-1.21.06c.67,0-.32-.52.42-.54a4.47,4.47,0,0,0-1.63-.78c-.46-.13-.81-.3-.85-.83-.49.06-.28.33,0,.58s.69.42.47.39c.18.38-.81.11-1.18-.29s-.13-1.21-.9-2.13c.08.1.12.08.19.17-.13-.46-.74-.57-.78-1.21-.54-.06-.3-.66-.83-.51a9.2,9.2,0,0,0,.66,1c-.23-.24-.56-.43-.84-.72a1.9,1.9,0,0,1-.58-1.27,2.18,2.18,0,0,1,.53.5c0-.36-.33-.55-.24-.92.48,0,.55,1.3,1.23,1.72.06-.37-.88-1-.22-.91-.41-.08-.51-.38-.57-.72a1.72,1.72,0,0,0-.41-1.07h.32A1.51,1.51,0,0,1,3,41.66a5.45,5.45,0,0,0,.46.38c-.45-.62.21-1.2,0-2,0,.78-.09.85-.21.82s-.29-.14-.39.15c-.45-1.85.82-1.08.66-3.2,0,.29-.19,1.09-.33.64a3.35,3.35,0,0,1,.35-1.19c-.07-1.41-.33.21-.52-.39.38-.48-.16-.69-.28-1.31H3c.21-1.61-.67-.43-.42-1.88l.45.61-.12-.75.37.16a3.11,3.11,0,0,1-.1-1.88c-.23.18-.59-.11-.6-.82.2-.49.31.27.26-.74.2.23.46.48.16.92.11,0,.2.22.31.27a4.18,4.18,0,0,0,0-1.68,1.3,1.3,0,0,1-.07.39l-.45-1.46c.12-.23.22-.05.32.13A6,6,0,0,1,3,27.93c.26.11.53.08.65.7l-.29-1.39c.11-.1.31-.72.41-.54.15-.77-.51-1.89-.31-2.92a.68.68,0,0,1-.13-.38,7,7,0,0,0,0-2.95l.47-.65c-.11-.9-.59.88-.77-.61-.15-1.06.4-.4.53-.77A3,3,0,0,1,3.21,16,5.23,5.23,0,0,1,3.27,16.89ZM4.71,7.13c-.07.18-.08.6-.31.61C4.2,7.37,4.43,7.31,4.71,7.13ZM18.93,2.78c-.16.11-.41.05-.69-.07A1.71,1.71,0,0,1,18.93,2.78ZM52,21.6l0,0C52.1,21.1,52.05,21.27,52,21.6Zm-.14,1c0,.1.09.09.13.05s-.08-.29-.06-.54C51.84,22.17,51.78,22.3,51.85,22.59ZM2.85,48l-.07-.23C3.15,48.09,3,48,2.85,48Z"/><path class="cls-1" d="M17,3.22a.41.41,0,0,1-.1-.18C16.85,3.1,16.85,3.16,17,3.22Z"/><path class="cls-1" d="M3.44,23.75v0a.09.09,0,0,0,.06,0Z"/><path class="cls-1" d="M48.1,8.07a1.1,1.1,0,0,1,0-.38C48,7.73,48,7.82,48.1,8.07Z"/><path class="cls-1" d="M52.4,27.83l-.09-.63a1.13,1.13,0,0,1-.1.57C52.28,27.76,52.39,27.64,52.4,27.83Z"/><path class="cls-1" d="M50.41,33.34c0,.09,0,.19,0,.28l.15,0C50.59,33.2,50.47,32.93,50.41,33.34Z"/><path class="cls-1" d="M51.33,28.42c-.27,0-.18.45-.13.89v-.08C51.58,29.37,51.45,28.89,51.33,28.42Z"/><path class="cls-1" d="M51.21,29.42a2.77,2.77,0,0,1,0,.41C51.37,29.88,51.25,29.66,51.21,29.42Z"/><path class="cls-1" d="M52,23.85c-.07.21.34.13.23.25C52.61,24.33,51.85,22.69,52,23.85Z"/><polygon class="cls-1" points="50.44 28.78 50.77 28.62 50.5 28.37 50.44 28.78"/><path class="cls-1" d="M50.68,25.28l-.09.7c.06,0,.09.08.12.19C50.72,25.74,50.78,25.26,50.68,25.28Z"/><path class="cls-1" d="M50.71,26.17a1.64,1.64,0,0,0,0,.58A3.24,3.24,0,0,0,50.71,26.17Z"/><polygon class="cls-1" points="50.34 27.81 50.41 27.6 50.43 27.1 50.34 27.81"/><path class="cls-1" d="M50.75,17.65l-.1-.77c-.11-.08-.18.13-.14.42S50.64,17.77,50.75,17.65Z"/><path class="cls-1" d="M49.83,20c.07-.21.15-.22.26-.34l-.41,0Z"/><path class="cls-1" d="M49.74,17.73c-.12-.07-.33-1.12-.3-.14C49.55,17.67,49.64,18.44,49.74,17.73Z"/><path class="cls-1" d="M48.49,6.54l.11.15.55-.4Z"/><path class="cls-1" d="M39.79,3.89c.91.17.26-.43,1-.19.2-.15-.57-.2-.38-.32C39.83,3.54,39.54,3.45,39.79,3.89Z"/><path class="cls-1" d="M40.38,3.38l.25-.09A.65.65,0,0,0,40.38,3.38Z"/><polygon class="cls-1" points="38.72 52.56 39.31 52.7 38.93 52.47 38.72 52.56"/><path class="cls-1" d="M39.85,52.06l.14.43.36-.39C40.21,52.12,40,52.15,39.85,52.06Z"/><path class="cls-1" d="M6.22,6.68l0-.1c-.14,0-.21,0-.37.2Z"/><path class="cls-1" d="M3.61,12.23c0-.05,0-.08,0-.12a2.28,2.28,0,0,0-.39.24Z"/><path class="cls-1" d="M4.11,19c0-.28-.08-.6-.06-.88C4.12,18.67,3.62,19,4.11,19Z"/><path class="cls-2" d="M10.41,24.51V7.73H15q8.87,0,8.87,8.18a8.24,8.24,0,0,1-2.46,6.24,9.16,9.16,0,0,1-6.6,2.36Zm2-15V22.73h2.51A7.07,7.07,0,0,0,20,21a6.59,6.59,0,0,0,1.84-5q0-6.45-6.86-6.45Z"/><path class="cls-3" d="M10.41,24.51V7.73H15q8.87,0,8.87,8.18a8.24,8.24,0,0,1-2.46,6.24,9.16,9.16,0,0,1-6.6,2.36Zm2-15V22.73h2.51A7.07,7.07,0,0,0,20,21a6.59,6.59,0,0,0,1.84-5q0-6.45-6.86-6.45Z"/><path class="cls-2" d="M12.42,10.72c-.06,0,0,.2-.05.23S12.42,10.67,12.42,10.72Z"/><polygon class="cls-2" points="13.4 10.25 13.38 10.34 13.53 10.13 13.4 10.25"/><path class="cls-2" d="M14.32,10.25c-.09-.35-.34.06-.5-.07l0-.08-.07.29C13.92,10.34,14.18,10.15,14.32,10.25Z"/><path class="cls-2" d="M14.8,11c0-.13.11-.12-.11,0l0,0Z"/><path class="cls-2" d="M14.71,11c-.1,0,.06.11,0,0Z"/><path class="cls-2" d="M15.14,10.94l-.11.12c0,.08.12.11.08.16C15.22,11.16,15.2,11.08,15.14,10.94Z"/><path class="cls-2" d="M15.25,10.68l-.06.06S15.22,10.78,15.25,10.68Z"/><path class="cls-2" d="M15.06,10.84l.13-.1c0-.06,0-.18-.06,0C15.14,10.67,15.12,10.77,15.06,10.84Z"/><path class="cls-2" d="M15,10.79c-.07-.08-.16-.13,0-.25C14.71,10.58,14.75,10.83,15,10.79Z"/><path class="cls-2" d="M14.36,9.88l-.09-.1-.09.12C14.23,9.84,14.37,10,14.36,9.88Z"/><path class="cls-2" d="M15.83,11.15a1.78,1.78,0,0,0,0-.3l-.08.08A.33.33,0,0,1,15.83,11.15Z"/><path class="cls-2" d="M15.8,10.85l.14-.12C15.83,10.71,15.8,10.77,15.8,10.85Z"/><polygon class="cls-2" points="15.28 10.29 15.06 10.56 15.32 10.29 15.28 10.29"/><polygon class="cls-2" points="16.28 11.21 16.2 11.38 16.35 11.12 16.28 11.21"/><path class="cls-2" d="M16.58,11.22c-.07.14,0,.25,0,.33.08,0,.17-.12.25-.22C16.71,11.38,16.65,11.35,16.58,11.22Z"/><path class="cls-2" d="M16.92,11.19a.92.92,0,0,0-.13.14A.6.6,0,0,0,16.92,11.19Z"/><path class="cls-2" d="M16.15,10.79a.36.36,0,0,0,.07.23l0-.22Z"/><path class="cls-2" d="M16.19,10.79h0l.1,0Z"/><path class="cls-2" d="M16.13,10.79h0S16.14,10.76,16.13,10.79Z"/><path class="cls-2" d="M15.62,10.49c.08-.11.25-.24.1-.42C15.66,10.21,15.74,10.32,15.62,10.49Z"/><path class="cls-2" d="M16.1,10.52,16,10.46a.32.32,0,0,1,0,.19Z"/><polygon class="cls-2" points="16.17 10.46 16.1 10.52 16.15 10.54 16.17 10.46"/><path class="cls-2" d="M16.75,11a.25.25,0,0,1,.2-.08.5.5,0,0,0-.21-.1C16.72,10.84,16.67,11,16.75,11Z"/><path class="cls-2" d="M16.49,10.85h0S16.49,10.81,16.49,10.85Z"/><polygon class="cls-2" points="17.6 11.03 17.6 10.99 17.58 11.03 17.6 11.03"/><path class="cls-2" d="M16.73,10.73c0-.05-.09,0-.13,0a.33.33,0,0,1,.14,0S16.75,10.72,16.73,10.73Z"/><path class="cls-2" d="M17.12,11.13,17.06,11C17.07,11.06,17.1,11.18,17.12,11.13Z"/><path class="cls-2" d="M16.51,10.9h0C16.51,11,16.51,10.93,16.51,10.9Z"/><path class="cls-2" d="M16.51,10.9l.09-.12a.53.53,0,0,0-.1.06S16.51,10.88,16.51,10.9Z"/><path class="cls-2" d="M18.23,9.8c-.08.19-.29.3-.37.06-.18.11-.26.76-.26,1.13a.32.32,0,0,1,.21-.23c0-.12-.21-.32,0-.46s.12.11.17.24c0-.26.34-.26.43-.61l-.21.06C18.17,9.93,18.26,9.87,18.23,9.8Z"/><path class="cls-2" d="M17.37,10.91h-.05a.76.76,0,0,1,.09.31.41.41,0,0,0,.17-.2l-.23-.09Z"/><path class="cls-2" d="M17.09,10.86c.09-.19.23-.25.21-.5-.16,0-.15.15-.26.22.26,0-.1.11.05.26a.25.25,0,0,1-.14,0,.63.63,0,0,1,.11.12h0s0,0,0,0h0l0-.07c.06.06,0,.05,0,.07v0h0l.27-.06A.4.4,0,0,0,17.09,10.86Z"/><path class="cls-2" d="M15.9,9.62a.09.09,0,0,1,0,.05S15.94,9.62,15.9,9.62Z"/><path class="cls-2" d="M16,9.76s-.05.11-.11.08,0-.1,0-.17-.15.14,0,.25l0,0a.69.69,0,0,1,.2.39A2.35,2.35,0,0,0,16,9.76Z"/><path class="cls-2" d="M16.6,10.24l.24-.06L16.76,10v.11C16.62,10,16.63,10.16,16.6,10.24Z"/><polygon class="cls-2" points="17.59 11.14 17.5 11.35 17.7 11.08 17.59 11.14"/><polygon class="cls-2" points="17.83 11.2 17.76 11.38 17.86 11.29 17.83 11.2"/><path class="cls-2" d="M15.93,23.87l-.07.06A.22.22,0,0,0,15.93,23.87Z"/><path class="cls-2" d="M16.5,23.82v-.1C16.48,23.78,16.48,23.82,16.5,23.82Z"/><path class="cls-2" d="M20.6,16.11c-.18.09-.47.18-.25.18l.22,0A.12.12,0,0,1,20.6,16.11Z"/><path class="cls-2" d="M20.1,21l.06,0-.09-.19Z"/><path class="cls-2" d="M20.67,21.65h-.21A.72.72,0,0,0,20.67,21.65Z"/><path class="cls-2" d="M12,24.14l-.29.22C11.93,24.36,11.92,24.25,12,24.14Z"/><path class="cls-2" d="M19.8,12.56a.35.35,0,0,0,0,.2C19.86,12.63,20,12.47,19.8,12.56Z"/><path class="cls-2" d="M15.91,21.56a.25.25,0,0,0,0,.14A.12.12,0,0,0,15.91,21.56Z"/><path class="cls-2" d="M19.88,12.93l0-.06a.17.17,0,0,1-.12-.11C19.74,12.86,19.72,13,19.88,12.93Z"/><path class="cls-2" d="M11.14,13.31l0,0S11.13,13.29,11.14,13.31Z"/><path class="cls-2" d="M13.32,10.36a.25.25,0,0,1,0,.13S13.35,10.43,13.32,10.36Z"/><path class="cls-2" d="M18.66,11.7c-.05,0,0,0,0,0Z"/><path class="cls-2" d="M18.87,10.83a.29.29,0,0,0,.07-.08A.3.3,0,0,1,18.87,10.83Z"/><path class="cls-2" d="M21.34,12.86h0S21.37,12.84,21.34,12.86Z"/><path class="cls-2" d="M18.65,11.58a.29.29,0,0,0,0,.09A.18.18,0,0,0,18.65,11.58Z"/><path class="cls-2" d="M18.61,11.67l0,0S18.55,11.68,18.61,11.67Z"/><path class="cls-2" d="M18.72,11.73a.1.1,0,0,1,0-.06s0,0,0,0Z"/><path class="cls-2" d="M11.72,18.72l0,0C11.65,18.63,11.66,18.66,11.72,18.72Z"/><polygon class="cls-2" points="22.65 18.05 22.64 18.03 22.64 18.04 22.65 18.05"/><path class="cls-2" d="M22.75,18.35c-.24-.18-.19-.23-.11-.31L22,18Z"/><path class="cls-2" d="M14.48,24l.24.19c-.34.32-.6.21-.36.48.06-.33.35-.35.57-.37s.36,0,.36-.38l.13.14s0,0-.07,0c.25.31.15-.5.45-.42.11,0,.2.13.13.22l.22-.19c.07,0,.07.13,0,.12l.35-.1v0c0-.11.13-.29.17-.37.11.08,0,.08,0,.16l.16-.2a.23.23,0,0,1-.16.36c.3.63.13-.19.62.11l-.18.12c.2.35.33.19.62.36-.09-.1-.59-.48-.4-.7.07,0,.16,0,.24-.12.06.23.16.14.3.09l.08.31c.14-.14.08-.29.12-.46.18,0,.3.19.42.37.3-.06-.33-.3,0-.48.27,0,.38-.16.55-.46.21,0,.07.18.16.24l0-.3s.06.06.07.1c.07-.15-.14-.28,0-.45-.15-.32.61.23.59-.25.1,0,.09.17.18.26a1.54,1.54,0,0,0,.11-.77h.31c-.29-.07-.32-.42-.36-.7l-.28-.11c0-.09,0-.2.06-.29s.12.1.19.23l0-.09c.15,0,.26.17.33.35L20.16,21a1.55,1.55,0,0,0,.33.51.31.31,0,0,1,0-.13c0,.06.05.1.08.11s0-.05,0-.14l.3.2-.09-.12a3.81,3.81,0,0,0,.44-.15c-.08-.46-.36-1-.28-1.37.17.22.35.24.61.41-.33-.07-.07.37-.27.52a.16.16,0,0,1,.23.09v-.52c.2.15.2,0,.35,0-.47-.18-.13-.43-.19-.65.15.06.29.18.15.34.45,0-.39-.52,0-.57,0,0-.05.05,0,.11-.09-.17.13-.37.24-.26l0,.05c.2-.29.33-1-.07-1.1a4.42,4.42,0,0,1,.56.21,10.52,10.52,0,0,0-1.28-.85c.35.12,1.24.09,1.39.39a.23.23,0,0,0,.05-.33c-.06,0-.54,0-.56,0,.43-.12.23-.09.61-.28-.09.06-.64-.1-.61-.21a4,4,0,0,1,.62.11l-.53-.36a1,1,0,0,0,.64,0c-.11,0,0-.27,0-.35l-.13.12c.1-.35-.78-.37-.74-.69.11,0,.71.11.78-.06a6.47,6.47,0,0,1-1.62-.56l.16-.06a1.8,1.8,0,0,0-.2-.19,7.14,7.14,0,0,1,1.73.63c.12-.13.19,0,.17-.23.15-.08.24.1.25.16l.08-.47c-.33,0-.36-.34-.64-.29a5.58,5.58,0,0,1,.38.47c-.34,0-.95-.23-.93-.53.12-.09.6,0,.71,0-.12,0-.26-.28-.18-.32l.2.12c.1-.2-.47-.23-.2-.5,0-.07.38-.3.19-.28a6.05,6.05,0,0,1-1.81.42,4,4,0,0,1,.46-.53c.26-.18.73,0,1-.15a.89.89,0,0,1-.26,0c.06-.1.29,0,.2-.2-.34.06-.07-.34-.3,0-.14-.13,0-.19-.06-.37a1.27,1.27,0,0,1-.9,0,.7.7,0,0,0,.21-.14,3.17,3.17,0,0,0-.17-.78c0-.07.07-.25.22-.27-.07,0-.19,0-.25-.06.13-.31.16.16.38-.15-.18.09-.38-.06-.56-.1-.23.22.13.28.31.33a1.66,1.66,0,0,1-1.16.2c-.2-.11.15-.25.09-.24-.25-.35-.74.25-.77-.16s.34-.41.44-.58c.22,0,.11.32.2.4l0-.2c.1,0,.24,0,.23.13.1-.27-.5-.57-.68-.93-.11,0-.25.06-.26.18l.11,0c0,.23-.33.14-.27.3-.2,0-.43.18-.54,0l.11-.29c0,.09,0,.22.12.16-.13.09-.08-.5-.33-.18l0,.25c-.18.08-.44.31-.55.18-.05.3,0,0,0,.34.1-.45.32.18.39-.31-.08.42.1.24,0,.61.05-.09.06-.19.13-.09l.07-.06h0s0,0,0,0a.45.45,0,0,1,0-.16c.17-.17.34-.05.46-.11s-.09.07-.12.18l.2-.09c-.13.19-.09.42-.29.42l.1.1c0,.16,0,.26.16.23s.28-.05.12,0l.26.07-.05,0c.11.18.61.15.39.6.08,0,.19.08.19.22l-.16.11c.1.07-.07.34.13.31-.44.27,0,.49,0,.69l.25,0a.68.68,0,0,0,.23.38l.22,0c.22.11-.11.4-.06.63-.08,0-.07-.07,0-.12-.46.31.4.58,0,.86.08.06.06.11,0,.16v0a0,0,0,0,0,0,0l-.12.08a.31.31,0,0,0,.12-.07.43.43,0,0,0,.09.2l-.24,0h0c-.09.07.12.07.3,0a.53.53,0,0,0,.14.11c-.39,0,.12.21-.3.26.2.06.12.38.53.47-.06,0-.08,0-.08,0s-.12.16,0,.25h-.31l.37.25a.46.46,0,0,1-.53-.05c.3.32.09.22.39.53L20.88,18c0,.08.2.28,0,.28-.4.05-.34.83-.88,1,.54.24-.32,0,0,.29-.13-.06-.22-.06-.28-.18,0,.26-.35.11-.15.47-.12-.08-.12-.17-.2-.2s0,.12,0,.08-.07-.09-.09-.15c-.11.16.18.46.46.75-.22-.05-.24,0-.12.26-.12-.06-.27-.12-.19-.25-.08.05-.49.17-.3.43-.07-.05-.1.05-.1.09a1.38,1.38,0,0,0-.33.2l.07,0c.15.36-.08.16-.19.27v0c-.43-.08-.08.19-.52.06l.12.21c.17.48-.4-.16-.51.09l.12.1c-.05.21-.52-.56-.62-.6s0-.08,0-.12c-.33-.21.06.31-.12.44-.08-.16-.07-.43-.2-.43s-.25.63-.5.34c.06.12.13.24.05.36s-.47-.44-.55,0l0-.1c-.1.12-.36.21-.42.43-.13-.81-.75.42-.68-.34l-.25,0,0-.08c-.14-.05-.24.13-.38.31,0,0,0-.12.05-.16-.18-.15-.16-.12-.64.26l.14-.25c-.16.13-.05-.29-.36-.16h-.06a1.06,1.06,0,0,1,.11-.09c-.15,0,0-.24.12-.38s.12-.18-.34-.05a.84.84,0,0,1-.22-.1c-.07.28-.39.08-.54.23-.05-.13.27-.38.32-.24l0,0c.46-.06.16-.35.48-.35,0-.67.24-1.33.26-2l-.37.08,0-.22c.09-.06.29-.08.27.08.21-.09-.17-.27-.25-.27.15-.31.43.12.44,0l0-.12,0,0c-.15-.1-.31-.11-.29-.3s.22-.06.24-.11,0,0,0-.07l0-.27-.29.11c-.14-.13,0-.26-.31-.14.5-.18.18-1,.34-1.15A.53.53,0,0,1,13,16c-.06.05-.38.09-.34-.1.67.07.29-.33.77-.47-.32.13-.08-.52-.53-.31.05-.16.25,0,.41-.13-.26-.36.17-.79.08-1.24-.09,0-.22.07-.35,0l.43-.23c0-.09-.5-.08-.2-.24-.07,0-.18,0-.21,0,.43-.88-.35-1.79.45-2.67-.17.12-.18,0-.19,0s-.22,0-.34,0l.33-.38c-.33-.06,0-.39-.33-.43l.05.12c-.37-.16-.83.21-1.3.19.42.18-.63.46,0,.75-.1.06-.16-.05-.27,0,.21.07.25.16.16.32l0,0c0,.46-.16.66-.29,1.17l.24,0a.4.4,0,0,1-.17.19c.36.13,0-.31.42-.2-.49.15,0,.78-.56.88,0,.17.28,0,.27.12l-.15,0,.2,0c0,.11-.22.17-.35.17,0,0,0-.08,0-.1-.18.14.06.4,0,.45l.09-.16c.14.46-.05,1,.25,1.48l.11,0c.2.34-.12.28,0,.65h0a.29.29,0,0,1,.16.28c-.13-.1-.26.18-.4.05.22.37.17.18.59.43l-.19.06c.17.08.26.09.31.27-.16-.15-.28.12-.49-.05-.41.39.4.59-.19.77.51.18.29-.34.4-.24.16-.09.38.15.33.27s-.66.21-.65.53c0,0,0,0,0-.07-.13.12.18.24,0,.38.31.08,0,.19.38.21l-.09-.29c.1.17.56.32.34.59a.75.75,0,0,1-.24-.15c-.12.07.07.15-.05.23-.39,0-.08-.35-.38-.53-.17.09.28.33-.14.25.54.12-.07.31.34.52h-.23s.14.1.14.16l-.31-.11c.26.17-.23.34-.08.5,0-.35.28-.08.45-.22.32.43-.62.24-.5.72,0-.06.14-.24.25-.14a.67.67,0,0,1-.26.27c0,.32.24-.05.38.09-.28.11.12.15.21.29H11.3c-.15.51.51.11.32.57l-.34-.15.09.25H11.1c.2.27.15.35.07.68.17-.13.44-.14.45.07-.15.24-.23,0-.2.35-.15,0-.34,0-.12-.25-.08,0-.15,0-.23,0a1,1,0,0,0,0,.66.42.42,0,0,1,.06-.19,2.14,2.14,0,0,0,.33.29c-.09.15-.16.15-.24.13s.14.08.16.21c-.19.13-.4.32-.49.14.07.13.15.25.22.36a3.29,3.29,0,0,0-.19.35.14.14,0,0,1-.08.12c.19.11,1-.38,1.25-.23a.53.53,0,0,1,.2-.1c.28,0,.48.28,1,0a2,2,0,0,0,.09.35c.34-.07-.13-.44.41-.57.37-.11,0,.3.15.4.24-.18.56-.54.86-.25C14.66,24,14.58,24,14.48,24Zm2.85-.42c0,.06-.12.23-.19.1C17.15,23.38,17.22,23.5,17.33,23.56ZM20.7,21c0,.08,0,.1-.15.09A.14.14,0,0,1,20.7,21Zm-1.49-9.12h0C19.22,12,19.23,11.94,19.21,11.87Zm-.06-.19a.1.1,0,0,0-.07.07s.08,0,.1,0S19.22,11.67,19.15,11.68ZM13.34,18l-.07,0C13.21,18,13.27,18,13.34,18Z"/><path class="cls-2" d="M20.6,21.56l-.11-.08A.11.11,0,0,0,20.6,21.56Z"/><path class="cls-2" d="M12.07,24.1h0l-.05,0Z"/><path class="cls-2" d="M22.55,13.48a.27.27,0,0,1-.1.13A.11.11,0,0,0,22.55,13.48Z"/><path class="cls-2" d="M18.16,11.56h.13c-.05,0-.05-.07-.06-.12S18.2,11.57,18.16,11.56Z"/><path class="cls-2" d="M17.63,9.79s-.05,0-.08,0l0,.11C17.62,9.93,17.7,9.86,17.63,9.79Z"/><path class="cls-2" d="M18.4,10.78c.07-.19,0-.16-.13-.16s0,0,0,0C18.15,10.89,18.28,10.82,18.4,10.78Z"/><path class="cls-2" d="M18.25,10.62a.11.11,0,0,1-.08,0C18.12,10.7,18.19,10.63,18.25,10.62Z"/><path class="cls-2" d="M18.89,11.65c0-.06-.17.21-.14.13C18.57,12,19.13,11.65,18.89,11.65Z"/><polygon class="cls-2" points="18.6 10.13 18.53 10.38 18.66 10.22 18.6 10.13"/><path class="cls-2" d="M19.2,10.66l-.09-.15a.12.12,0,0,1-.08.06C19.11,10.62,19.17,10.72,19.2,10.66Z"/><path class="cls-2" d="M19,10.57a.13.13,0,0,0-.13,0A.24.24,0,0,0,19,10.57Z"/><polygon class="cls-2" points="18.82 10.16 18.85 10.23 18.94 10.3 18.82 10.16"/><path class="cls-2" d="M20.41,11.77l.15.09c.08,0,.1-.11,0-.14S20.46,11.69,20.41,11.77Z"/><path class="cls-2" d="M20.56,10.91a.39.39,0,0,1-.08.19l.23-.21Z"/><path class="cls-2" d="M21,11.28c.07,0,.36.08.2-.11C21.11,11.2,20.94,11.09,21,11.28Z"/><polygon class="cls-2" points="21.78 13.96 21.77 13.91 21.27 14.03 21.78 13.96"/><path class="cls-2" d="M23.19,16.33c.13-.23-.31-.06-.16-.26-.12-.06-.12.16-.23.11C22.93,16.32,22.86,16.39,23.19,16.33Z"/><path class="cls-2" d="M22.8,16.18a.46.46,0,0,0-.07-.07A.22.22,0,0,0,22.8,16.18Z"/><polygon class="cls-2" points="13.6 9.88 13.7 9.74 13.53 9.83 13.6 9.88"/><path class="cls-2" d="M13.22,9.62l.32,0-.29-.08S13.29,9.6,13.22,9.62Z"/><path class="cls-2" d="M17.92,24.08V24a.13.13,0,0,0-.16-.06Z"/><polygon class="cls-2" points="15.77 24.2 15.8 24.2 15.72 23.92 15.77 24.2"/><path class="cls-2" d="M13.6,24.6c.1,0,.25-.05.35,0C13.7,24.62,13.68,24.24,13.6,24.6Z"/><path class="cls-2" d="M10.47,25.72c-.08,0-.05.19-.06.23S10.47,25.67,10.47,25.72Z"/><polygon class="cls-2" points="11.78 25.25 11.76 25.33 11.95 25.12 11.78 25.25"/><path class="cls-2" d="M13,25.25c-.12-.36-.45.06-.67-.07l0-.08-.1.29C12.48,25.34,12.82,25.15,13,25.25Z"/><path class="cls-2" d="M13.66,26c0-.14.14-.12-.15,0l0,0Z"/><path class="cls-2" d="M13.54,26c-.13,0,.08.12,0,0Z"/><path class="cls-2" d="M14.13,25.93l-.17.13c0,.08.19.1.13.16C14.27,26.15,14.23,26.07,14.13,25.93Z"/><path class="cls-2" d="M14.29,25.67l-.09.06S14.24,25.77,14.29,25.67Z"/><path class="cls-2" d="M14,25.84l.18-.11c0-.06,0-.18-.08,0C14.13,25.66,14.1,25.76,14,25.84Z"/><path class="cls-2" d="M13.91,25.78c-.09-.07-.22-.12-.05-.25C13.54,25.58,13.59,25.83,13.91,25.78Z"/><path class="cls-2" d="M13.07,24.88l-.13-.1-.11.12C12.89,24.84,13.08,25,13.07,24.88Z"/><path class="cls-2" d="M15.23,26.11c0-.07-.07-.2-.08-.3L15,25.9C15.08,26,15.22,26,15.23,26.11Z"/><path class="cls-2" d="M15.15,25.81l.2-.13C15.16,25.67,15.13,25.73,15.15,25.81Z"/><polygon class="cls-2" points="14.32 25.28 14.01 25.55 14.38 25.27 14.32 25.28"/><polygon class="cls-2" points="16.04 26.08 15.93 26.27 16.12 25.98 16.04 26.08"/><path class="cls-2" d="M16.57,26c-.07.15.15.23.07.33A.82.82,0,0,0,17,26,.38.38,0,0,1,16.57,26Z"/><path class="cls-2" d="M17.15,25.82,17,26A.44.44,0,0,0,17.15,25.82Z"/><path class="cls-2" d="M15.7,25.7a.32.32,0,0,0,.17.21l-.09-.21Z"/><path class="cls-2" d="M15.78,25.69h0Z"/><path class="cls-2" d="M15.68,25.7h0S15.68,25.67,15.68,25.7Z"/><path class="cls-2" d="M14.82,25.47c.11-.12.35-.25.12-.43C14.86,25.19,15,25.29,14.82,25.47Z"/><path class="cls-2" d="M15.56,25.44l-.21,0c0,.06.05.14,0,.2Z"/><polygon class="cls-2" points="15.66 25.37 15.56 25.44 15.64 25.45 15.66 25.37"/><path class="cls-2" d="M16.74,25.68a.63.63,0,0,1,.3-.16,1.22,1.22,0,0,0-.38,0C16.65,25.58,16.61,25.71,16.74,25.68Z"/><path class="cls-2" d="M16.27,25.68l0,0S16.26,25.64,16.27,25.68Z"/><polygon class="cls-2" points="18.19 25.27 18.16 25.24 18.16 25.28 18.19 25.27"/><path class="cls-2" d="M16.63,25.47c-.1,0-.15,0-.19.11a.81.81,0,0,1,.22-.07S16.66,25.46,16.63,25.47Z"/><path class="cls-2" d="M17.46,25.66l-.18-.08C17.34,25.64,17.46,25.72,17.46,25.66Z"/><path class="cls-2" d="M16.33,25.72h0S16.34,25.75,16.33,25.72Z"/><path class="cls-2" d="M16.33,25.72a1.71,1.71,0,0,0,.11-.14.53.53,0,0,0-.15.08Z"/><path class="cls-2" d="M18.13,23.87a.24.24,0,0,1-.37.28c-.15.19.12.79.4,1.09,0-.08,0-.16.14-.33-.11-.08-.52-.12-.4-.34s.24,0,.4.07c-.18-.2.22-.45.05-.77l-.18.19S18.2,23.9,18.13,23.87Z"/><path class="cls-2" d="M17.75,25.32l-.09.05a.8.8,0,0,1,.37.19c.13-.13.14-.21.13-.28l-.44.08Z"/><path class="cls-2" d="M17.27,25.45c0-.23.21-.35,0-.56-.24.06-.14.21-.27.33.4-.13-.1.14.22.2a.61.61,0,0,1-.22.1l.24.06h0s0,0,0,0h0a.22.22,0,0,1,0-.08c.13,0,0,.05,0,.08v0h0l.4-.2A1.05,1.05,0,0,0,17.27,25.45Z"/><path class="cls-2" d="M15.14,24.57a.11.11,0,0,1,0,.05S15.19,24.58,15.14,24.57Z"/><path class="cls-2" d="M15.3,24.7s-.05.12-.14.1,0-.1,0-.18-.19.16,0,.26l0,0c.15.08.37.33.35.36A2.25,2.25,0,0,0,15.3,24.7Z"/><path class="cls-2" d="M16.26,25.06l.32-.15-.19-.16,0,.11C16.22,24.84,16.27,25,16.26,25.06Z"/><polygon class="cls-2" points="18.25 25.37 18.27 25.6 18.39 25.23 18.25 25.37"/><polygon class="cls-2" points="18.7 25.2 18.75 25.4 18.83 25.25 18.7 25.2"/><path class="cls-2" d="M15.88,8.94,15.79,9Z"/><path class="cls-2" d="M16.51,9l0-.09C16.5,9,16.48,9,16.51,9Z"/><path class="cls-2" d="M25.14,16.29c.19-.14.48-.32.26-.3l-.22,0A.25.25,0,0,1,25.14,16.29Z"/><path class="cls-2" d="M21.69,9.85v.08l.2-.08Z"/><path class="cls-2" d="M21,10.45l0-.2A.81.81,0,0,0,21,10.45Z"/><path class="cls-2" d="M12.3,9.15v.22S12.31,9.25,12.3,9.15Z"/><path class="cls-2" d="M22.74,22.52a.79.79,0,0,0,.32-.18C22.86,22.39,22.63,22.36,22.74,22.52Z"/><path class="cls-2" d="M16.29,6.66c-.07,0-.1.08-.1.13S16.3,6.72,16.29,6.66Z"/><path class="cls-2" d="M23.31,22l-.08,0a.68.68,0,0,1-.17.28C23.21,22.31,23.35,22.23,23.31,22Z"/><path class="cls-2" d="M11.64,19.43l0,0S11.65,19.45,11.64,19.43Z"/><path class="cls-2" d="M9.46,23.36a.39.39,0,0,1,0-.16A.25.25,0,0,0,9.46,23.36Z"/><path class="cls-2" d="M20.51,24.52c-.08.06,0,0,0,0Z"/><path class="cls-2" d="M19.69,24a.19.19,0,0,0,0-.12A.3.3,0,0,1,19.69,24Z"/><path class="cls-2" d="M22.73,20.49h0C22.68,20.48,22.69,20.48,22.73,20.49Z"/><path class="cls-2" d="M20.33,24.51a.33.33,0,0,0,.14,0Z"/><path class="cls-2" d="M20.4,24.59l-.09,0S20.33,24.67,20.4,24.59Z"/><path class="cls-2" d="M20.63,24.44a.44.44,0,0,1-.16.06s0,0,0,0Z"/><path class="cls-2" d="M11.06,12.19l0,0C11.13,12.3,11.12,12.26,11.06,12.19Z"/><polygon class="cls-2" points="22.77 14.12 22.78 14.13 22.79 14.12 22.77 14.12"/><path class="cls-2" d="M22.56,13.87c.28.07.27.15.23.24l.59-.19Z"/><path class="cls-2" d="M14.31,9l.22.19c-.27.32-.46.21-.25.49,0-.68.87-.08.89-.75l.13.15s0,0-.08,0c.25.34.2-.48.55-.37.12,0,.2.15.11.23l.28-.15c.07,0,.05.14,0,.12l.41,0v0a3.09,3.09,0,0,1,.29-.32c.09.11-.06.07,0,.16L17,8.61c.07.18-.13.33-.28.29.12.69.21-.16.58.31l-.21,0c.07.4.24.29.41.56,0-.13-.33-.67-.08-.79.06.06.14.1.3,0,0,.24.08.2.23.23l-.08.31c.18-.05.2-.21.33-.33.18.08.14.33.12.54.27.12-.07-.43.27-.4.19.2.38.13.73.05.11.17-.1.17-.08.28l.23-.17s0,.09,0,.12c.15,0,.14-.29.36-.28.23-.28.13.64.53.43,0,.11-.13.15-.18.26a3.52,3.52,0,0,0,.77-.12l0,.32c0-.29.38-.38.7-.4a1.18,1.18,0,0,0,0-.31,2.55,2.55,0,0,1,.39.13c0,.07-.11.12-.25.18H22c0,.18-.17.25-.36.32l.06-.23a1.15,1.15,0,0,0-.51.34.15.15,0,0,1,.13,0c-.05,0-.09.05-.1.08s.05,0,.14,0l-.2.3.11-.09.11.43c.42,0,1.06-.13,1.44.27-.29,0-.39.19-.66.34.23-.29-.29-.24-.38-.46,0,.12-.09.19-.15.19a2.41,2.41,0,0,1,.47.18c-.22.12-.11.18-.15.32.39-.31.46.11.65.22-.15.08-.31.11-.37-.1-.24.37.66,0,.46.39,0-.05,0-.09-.1-.07.19.06.2.39,0,.37a.08.08,0,0,0,0-.05c.06.35.3,1,.71,1l-.59.05a11.83,11.83,0,0,1,1.52.42c-.36,0-1.2.33-1.44.07a.28.28,0,0,0,.06.36c.05-.06.51-.21.55-.13-.38.27-.2.18-.51.49.07-.1.65,0,.64.1a4.27,4.27,0,0,1-.62,0l.57.33c-.1-.09-.47,0-.63.09.11,0,0,.3.06.39l.13-.15c-.07.39.79.39.75.81-.11-.05-.7-.14-.78,0,.28.1,1.35.5,1.52.94l-.17.05.14.33-1.58-1.13c-.14.14-.19,0-.2.24-.16.06-.21-.14-.22-.2l-.15.47c.34,0,.28.41.56.44-.09-.2-.17-.39-.27-.58.33,0,.91.43.78.81-.15.06-.58-.19-.69-.2.11.07.15.38.06.39l-.14-.18c-.16.15.36.41,0,.56-.05.07-.48.09-.3.17a5.12,5.12,0,0,1,1.79.49,2.57,2.57,0,0,1-.72.39c-.33,0-.59-.46-.88-.44a.43.43,0,0,1,.19.19c-.11.05-.25-.14-.29.05.31.16-.17.34.23.19,0,.22-.14.15-.22.35a1,1,0,0,1,.54.76.49.49,0,0,0-.24-.07c-.24.33-.49.43-.73.72-.08,0-.27.05-.34-.1,0,.08.08.19,0,.28-.37,0,.13-.22-.25-.33.14.14,0,.4,0,.6.26.18.31-.24.31-.44a1.09,1.09,0,0,1,.3,1.23c-.17.32-.29-.09-.29,0-.51.36.07.93-.56,1-.33-.09-.32-.43-.48-.55.16-.24.43-.12.57-.24l-.25,0a.29.29,0,0,1,.22-.29c-.27-.07-.83.61-1.35.64,0,.12-.1.27,0,.33l.11-.1c.23.11-.1.4.12.39-.1.24-.21.56-.54.58L19.4,24c0,.08.26.08.29,0-.06.19-.58-.19-.54.23l.27.11c-.13.23-.27.63-.56.64.22.24,0,0,.35.21-.31-.35.68-.26.24-.58.35.29.39,0,.79.21,0-.09-.17-.13.07-.2a.34.34,0,0,1,0-.1h0a.3.3,0,0,1-.18-.08c0-.25.31-.43.35-.59s0,.13.14.18l.06-.25c.13.18.51.1.3.4l.26-.16c.22,0,.46-.11.51-.28s.13-.42.14-.21a3.66,3.66,0,0,0,.26-.42l0,0c.37-.31.4-.91,1-1.07a.87.87,0,0,1,.29-.51l.19.06c.05-.2.5-.43.36-.61.58.06.56-.85.76-1.15l-.23-.11a1.73,1.73,0,0,0,.09-.78l-.22-.05c-.11-.28.32-.58.37-1,.08,0,0,.14,0,.2.59-.39-.21-1,.18-1.41a.18.18,0,0,1,0-.26,0,0,0,0,0,0,0v0a1.58,1.58,0,0,0,.12-.15,1.33,1.33,0,0,0-.12.12.93.93,0,0,0-.08-.32l.24-.05v0c.1-.12-.11-.1-.29,0a.54.54,0,0,0-.15-.15c.39-.1-.14-.31.27-.45-.21-.07-.16-.59-.61-.61.06,0,.08,0,.09,0,0-.13.07-.26-.06-.37l.29-.09-.44-.23c.17-.19.27-.29.52-.15-.42-.36-.2-.32-.62-.6l.2,0c0-.13-.32-.26-.19-.38s.05-.53-.07-.93a5.82,5.82,0,0,1-.39-1.27c-.43.43,0-.45-.36-.24.09-.11.09-.25.27-.21-.35-.25-.2-.64-.67-.62.08-.13.21-.06.25-.15s-.18,0-.15-.11.13,0,.22,0c-.32-.3-.66,0-1,.22,0-.27-.09-.34-.38-.23,0-.14,0-.32.26-.2-.09-.1-.56-.7-.76-.44,0-.09-.15-.12-.2-.11a2,2,0,0,0-.53-.35l.05.09c-.29.28-.26,0-.49-.1l0,0c-.38-.49-.25,0-.64-.47L19.59,8c-.22.48-.33-.46-.7-.35L19,7.8c-.2.13-.27-.79-.43-.9s.07-.05.13-.07c-.39-.41-.13.28-.48.28,0-.18.17-.41-.05-.48s-.75.42-1,.07c.06.13.1.27-.06.35s-.59-.55-.83-.16a.16.16,0,0,1,0-.1c-.18.09-.59.15-.7.37-.16-.84-1.07.39-1.06-.37l-.52,0,0-.08c-.34,0-.45.13-.57.32-.08-.06,0-.13,0-.17-.48-.15-.53-.12-.94.26l0-.25c-.06.08-.31,0-.65-.1a1.73,1.73,0,0,0-1.08,0s0-.08,0-.12a3,3,0,0,1-1.38-.1A1.12,1.12,0,0,0,9.6,7.85l.22.61c.07-.54.39.28.54.13.05.19-.27.39-.32.12l.05,0c-.47-.31-.17.65-.49.58a5.57,5.57,0,0,1,0,.78c0,.23-.05.45-.08.67A9.44,9.44,0,0,0,9.34,12l.37-.1,0,.29c-.09.08-.29.11-.27-.1-.21.11.17.35.25.35-.15.42-.43-.16-.44,0l0,.17,0,0c.15.14.31.15.29.41s-.22.08-.24.14,0,0,0,.1l0,.37.29-.15c.14.16,0,.35.31.18-.5.25-.18,1.38-.33,1.53a.87.87,0,0,1,.18.74c.06-.07.38-.11.34.13-.67-.09-.29.45-.77.64.32-.17.08.69.53.42,0,.2-.25,0-.41.16.26.49-.16,1.07-.08,1.66.09,0,.22-.09.36,0l-.44.31c0,.12.5.11.2.33.07,0,.18-.08.21,0-.43,1.17.35,2.39-.45,3.57.17-.16.19-.05.19.07,0-.08.22,0,.34,0l-.33.49c.33.09,0,.54.34.59l-.06-.16c.37.21.83-.29,1.3-.26-.42-.24.63-.62,0-1,.09-.09.15.07.26,0-.2-.09-.25-.21-.16-.43l.06,0a5.16,5.16,0,0,1,.28-1.57l-.23.06a.44.44,0,0,1,.16-.25c-.36-.17,0,.41-.41.26.48-.2,0-1,.55-1.18,0-.22-.27.07-.27-.16l.15-.06-.19-.05a.35.35,0,0,1,.34-.23s0,.1,0,.14c.18-.2-.06-.55,0-.61l-.09.21c-.14-.62.06-1.37-.25-2l-.11,0c-.2-.45.13-.36,0-.87l0,0a.45.45,0,0,1-.16-.37c.13.13.26-.24.4-.07-.22-.5-.17-.25-.59-.57l.19-.08c-.17-.11-.26-.12-.31-.37.16.2.29-.16.5.07.4-.53-.41-.78.18-1-.51-.24-.29.46-.4.33-.16.11-.38-.2-.33-.37s.66-.29.65-.71c0,0,0,.05,0,.09.13-.16-.17-.31,0-.51-.31-.1,0-.25-.38-.28l.09.39c-.1-.22-.56-.43-.34-.79a.69.69,0,0,1,.24.21c.12-.11-.07-.2,0-.31.39,0,.08.47.38.7.17-.11-.28-.44.15-.32-.55-.17.06-.42-.35-.71l.24,0s-.15-.14-.15-.22l.31.15c-.26-.23.23-.45.09-.67,0,.47-.29.1-.46.3-.32-.57.62-.33.5-1,0,.09-.14.32-.25.19a.74.74,0,0,1,.27-.36c-.05-.43-.25.06-.39-.12.29-.15-.12-.22-.21-.32l.24,0c.15-.19-.5-.17-.32-.38a3.13,3.13,0,0,0,.34.21l-.09-.13.27.13c-.2-.17-.15-.21-.07-.25-.17-.08-.44-.3-.44-.45.14,0,.22.23.19,0,.15.18.34.35.12.23l.23.2c.16.08,0-.08,0-.12l-.05,0-.09-.13a.75.75,0,0,1-.08-.24.66.66,0,0,1,.18.23s0-.14,0-.16c.12.2.26.4.3.49A.41.41,0,0,1,12,9a3.42,3.42,0,0,1,.21.31c.05.12,0-.38.13-.23a.18.18,0,0,1,0-.1c.29,0,.55.28.9,0l.19.35c.27-.08-.26-.44.19-.58s.12.3.23.4c.16-.18.43-.54.72-.25C14.48,9,14.4,9,14.31,9Zm3.13,0c-.07,0-.21.18-.23,0S17.36,8.93,17.44,9Zm4.25,1.49c-.09,0-.11,0-.1-.17A.19.19,0,0,1,21.69,10.51Zm-.34,13.24v0C21.54,23.71,21.47,23.71,21.35,23.75Zm-.34.11a.08.08,0,0,0,0,.09c0-.06.05-.11.13-.14S21.06,23.76,21,23.86ZM9.44,13.13l.07-.05C9.58,13.21,9.51,13.17,9.44,13.13Z"/><path class="cls-2" d="M21.1,10.38a.41.41,0,0,1,.07-.11A.09.09,0,0,0,21.1,10.38Z"/><polygon class="cls-2" points="12.31 9.11 12.3 9.1 12.3 9.15 12.31 9.11"/><path class="cls-2" d="M22.37,19.07a.23.23,0,0,1,.15-.05A.1.1,0,0,0,22.37,19.07Z"/><path class="cls-2" d="M19.6,25.09l.18-.15c-.1.06-.15,0-.22,0S19.66,25.06,19.6,25.09Z"/><path class="cls-2" d="M17.44,24.22s-.06,0-.08.05l0,.11C17.51,24.34,17.57,24.24,17.44,24.22Z"/><path class="cls-2" d="M19.11,24.42c-.09-.18-.18-.07-.31,0h0C18.89,24.71,19,24.57,19.11,24.42Z"/><path class="cls-2" d="M18.78,24.46a.28.28,0,0,1-.13,0C18.67,24.62,18.71,24.51,18.78,24.46Z"/><path class="cls-2" d="M20.72,24.21c-.09,0,.09.24,0,.19C20.8,24.67,21,23.88,20.72,24.21Z"/><polygon class="cls-2" points="18.76 23.84 18.9 24.06 18.89 23.84 18.76 23.84"/><path class="cls-2" d="M19.81,23.57l-.23,0a.11.11,0,0,1,0,.11C19.69,23.65,19.85,23.63,19.81,23.57Z"/><path class="cls-2" d="M19.57,23.71a.2.2,0,0,0-.14.11A.42.42,0,0,0,19.57,23.71Z"/><polygon class="cls-2" points="19 23.67 19.08 23.69 19.23 23.64 19 23.67"/><path class="cls-2" d="M21.73,22.2l.11-.22c0-.08-.12-.07-.16,0S21.64,22.16,21.73,22.2Z"/><path class="cls-2" d="M20.75,22.16c.08,0,.12,0,.2.08l-.2-.23Z"/><path class="cls-2" d="M21.18,21.68c-.05-.08,0-.4-.14-.19C21.09,21.56,21,21.77,21.18,21.68Z"/><polygon class="cls-2" points="23.28 19.05 23.27 19.11 23.75 19.27 23.28 19.05"/><path class="cls-2" d="M22.56,16c-.13.24.31.06.15.28.12.07.13-.18.23-.11C22.82,16,22.89,16,22.56,16Z"/><path class="cls-2" d="M22.94,16.2l.08.08A.19.19,0,0,0,22.94,16.2Z"/><polygon class="cls-2" points="9.19 24.02 9.08 24.19 9.25 24.08 9.19 24.02"/><path class="cls-2" d="M9.56,24.36l-.32,0,.29.11S9.49,24.39,9.56,24.36Z"/><path class="cls-2" d="M17.74,9.74l0-.07c0-.09,0-.11-.11-.13A1.19,1.19,0,0,1,17.74,9.74Z"/><polygon class="cls-2" points="15.66 9.25 15.7 9.26 15.64 8.96 15.66 9.25"/><path class="cls-2" d="M13.69,9.61c.08,0,.18-.06.26,0C13.77,9.62,13.67,9.24,13.69,9.61Z"/><path class="cls-2" d="M42.25,24.51h-2V16.86H31.6v7.65h-2V7.73h2v7.36h8.68V7.73h2Z"/><path class="cls-3" d="M42.25,24.51h-2V16.86H31.6v7.65h-2V7.73h2v7.36h8.68V7.73h2Z"/><path class="cls-2" d="M43.46,24.4c0,.13.19.09.23.11C43.64,24.29,43.41,24.41,43.46,24.4Z"/><polygon class="cls-2" points="42.99 22.24 43.07 22.28 42.86 21.96 42.99 22.24"/><path class="cls-2" d="M43,20.22c-.36.19.06.73-.07,1.09l-.08.06.29.16A4.3,4.3,0,0,1,43,20.22Z"/><path class="cls-2" d="M43.76,19.14c-.14.06-.12-.24,0,.25,0,0,0,0,0-.05A1.82,1.82,0,0,1,43.76,19.14Z"/><path class="cls-2" d="M43.75,19.34c0,.22.12-.14,0,0Z"/><path class="cls-2" d="M43.67,18.36l.13.28c.08-.06.1-.31.16-.22C43.89,18.14,43.81,18.19,43.67,18.36Z"/><path class="cls-2" d="M43.41,18.09l.06.15S43.51,18.17,43.41,18.09Z"/><path class="cls-2" d="M43.58,18.55l-.11-.31c-.06,0-.18,0,0,.14C43.4,18.35,43.5,18.41,43.58,18.55Z"/><path class="cls-2" d="M43.52,18.72c-.07.16-.12.36-.25.08C43.32,19.34,43.57,19.26,43.52,18.72Z"/><path class="cls-2" d="M42.62,20.11l-.1.21.12.18C42.58,20.41,42.73,20.1,42.62,20.11Z"/><path class="cls-2" d="M43.86,16.61c-.08,0-.2.09-.3.11l.09.21C43.7,16.83,43.75,16.62,43.86,16.61Z"/><path class="cls-2" d="M43.56,16.72l-.13-.31C43.41,16.69,43.48,16.74,43.56,16.72Z"/><polygon class="cls-2" points="43.02 18.04 43.29 18.55 43.02 17.94 43.02 18.04"/><polygon class="cls-2" points="43.87 15.43 44.04 15.6 43.78 15.29 43.87 15.43"/><path class="cls-2" d="M43.84,14.64c.14.13.24-.18.33,0a1.21,1.21,0,0,0-.26-.56A.74.74,0,0,1,43.84,14.64Z"/><path class="cls-2" d="M43.75,13.76a1.17,1.17,0,0,0,.16.28A.8.8,0,0,0,43.75,13.76Z"/><path class="cls-2" d="M43.47,15.89a.39.39,0,0,0,.21-.25l-.21.12Z"/><path class="cls-2" d="M43.46,15.77h0V15.5Z"/><path class="cls-2" d="M43.47,15.92v0S43.44,15.91,43.47,15.92Z"/><path class="cls-2" d="M43.21,17.23c-.12-.18-.25-.56-.43-.2C42.93,17.16,43,17,43.21,17.23Z"/><path class="cls-2" d="M43.2,16.07l-.05.33c.06,0,.14-.07.2,0Z"/><polygon class="cls-2" points="43.13 15.91 43.2 16.07 43.22 15.95 43.13 15.91"/><path class="cls-2" d="M43.55,14.33a1,1,0,0,1-.12-.48,2.83,2.83,0,0,0-.06.57C43.43,14.45,43.55,14.53,43.55,14.33Z"/><path class="cls-2" d="M43.49,15v0S43.45,15,43.49,15Z"/><polygon class="cls-2" points="43.43 12.12 43.39 12.15 43.43 12.16 43.43 12.12"/><path class="cls-2" d="M43.33,14.45a.32.32,0,0,0,.07.31,1.87,1.87,0,0,1,0-.34S43.32,14.41,43.33,14.45Z"/><path class="cls-2" d="M43.65,13.28a1.08,1.08,0,0,0-.12.24C43.6,13.45,43.7,13.31,43.65,13.28Z"/><path class="cls-2" d="M43.53,15v0C43.59,14.92,43.57,14.93,43.53,15Z"/><path class="cls-2" d="M43.53,15a.8.8,0,0,0-.13-.19.85.85,0,0,0,.08.24Z"/><path class="cls-2" d="M42.06,11.6c.2,0,.38.39.17.72.15.31.8.11,1.16-.17-.08,0-.16,0-.28-.34-.11.12-.25.73-.43.45-.1-.43.07-.35.17-.56-.24.18-.35-.55-.72-.46l.13.38C42.2,11.63,42.11,11.49,42.06,11.6Z"/><path class="cls-2" d="M43.37,12.77l0,.13a1.08,1.08,0,0,1,.27-.46c-.1-.22-.17-.27-.24-.28l0,.66Z"/><path class="cls-2" d="M43.4,13.51c-.22-.11-.31-.43-.54-.23,0,.39.18.27.27.51-.05-.64.12.18.24-.28a1.52,1.52,0,0,1,.06.34c0-.11.06-.22.1-.33v0h0s0,0,0,0v0l-.08,0c0-.19.06,0,.08,0h0l-.12-.64A2,2,0,0,0,43.4,13.51Z"/><path class="cls-2" d="M42.32,16.7l0,0S42.33,16.62,42.32,16.7Z"/><path class="cls-2" d="M42.45,16.43c0,.05.12.09.09.24s-.1,0-.17,0,.15.32.26,0l0-.05c.07-.25.34-.58.37-.54A1.59,1.59,0,0,0,42.45,16.43Z"/><path class="cls-2" d="M42.87,15l-.11-.53-.18.27h.11C42.65,15,42.78,14.91,42.87,15Z"/><polygon class="cls-2" points="43.54 12.06 43.77 12.13 43.45 11.82 43.54 12.06"/><polygon class="cls-2" points="43.51 11.37 43.71 11.4 43.59 11.22 43.51 11.37"/><path class="cls-2" d="M30.82,15.58l.06.15A.57.57,0,0,0,30.82,15.58Z"/><path class="cls-2" d="M30.83,14.45l-.09,0C30.79,14.48,30.83,14.5,30.83,14.45Z"/><path class="cls-2" d="M36.35,13.85c-.22-.19-.48-.47-.45-.25l.07.21A.58.58,0,0,1,36.35,13.85Z"/><path class="cls-2" d="M31.55,8.31l-.06.11.2,0Z"/><path class="cls-2" d="M30.66,8.87l.14-.29A2.59,2.59,0,0,0,30.66,8.87Z"/><path class="cls-2" d="M31.05,21.73l.22.18C31.27,21.63,31.16,21.75,31.05,21.73Z"/><path class="cls-2" d="M39.1,8.87a3.09,3.09,0,0,0-.13.79C39.09,9.25,39.28,9,39.1,8.87Z"/><path class="cls-2" d="M28.52,15.14c0,.09.09.13.13.13S28.58,15.12,28.52,15.14Z"/><path class="cls-2" d="M39,10.22s0-.07.05-.1A1.17,1.17,0,0,1,39,9.66.46.46,0,0,0,39,10.22Z"/><path class="cls-2" d="M41.52,17.64l0,.09S41.52,17.69,41.52,17.64Z"/><path class="cls-2" d="M39.44,25.46h-.12v-.27a.64.64,0,0,0,0,.28Z"/><path class="cls-2" d="M43.61,7.86c0,.24,0,0,0,0Z"/><path class="cls-2" d="M42.75,9.23a.1.1,0,0,0-.1-.06A.14.14,0,0,1,42.75,9.23Z"/><path class="cls-2" d="M40.31,11.67v0S40.35,11.65,40.31,11.67Z"/><path class="cls-2" d="M43.51,8.28a1.72,1.72,0,0,0,.06-.34Z"/><path class="cls-2" d="M43.61,8.19l0,.22S43.65,8.39,43.61,8.19Z"/><path class="cls-2" d="M43.6,7.52a3,3,0,0,1,0,.42c0-.06,0-.09,0-.08Z"/><path class="cls-2" d="M31,18.9l0,0C30.88,18.72,30.89,18.78,31,18.9Z"/><polygon class="cls-2" points="32.05 16.09 32.08 16.09 32.05 16.08 32.05 16.09"/><path class="cls-2" d="M31.13,16.26c.55-.27.69-.24.92-.18a4.62,4.62,0,0,1,.11-.63A10.28,10.28,0,0,1,31.13,16.26Z"/><path class="cls-2" d="M30.88,18.27l.2-.36c.32.44.21.76.48.42-.68-.06-.07-1.43-.75-1.48L31,16.6c0,.07,0,.08,0,.15.33-.47-.49-.35-.39-1,.05-.21.15-.36.23-.21l-.17-.47c0-.14.13-.11.12,0l-.05-.72h0A2.73,2.73,0,0,1,30.4,14c.09-.19.07.09.15,0l-.16-.4c.17-.16.35.17.32.45.68-.38-.17-.34.22-1.14l.09.38c.39-.25.25-.54.49-1-.13.1-.61.85-.78.41a.52.52,0,0,0-.06-.51c.24,0,.18-.23.17-.52l.32,0c-.09-.31-.26-.28-.4-.46,0-.35.28-.42.49-.5.05-.55-.4.38-.46-.27a1.26,1.26,0,0,0-.2-1.1c.11-.12.2.08.29.05a1.2,1.2,0,0,1-.26-.21s.09,0,.13,0c-.1-.16-.32-.14-.41-.43s.05-.22.17-.26.08.09,0-.06c.05.09.08.2.14.32a.23.23,0,0,1-.06-.24c0-.06,0-.13.23-.3a.27.27,0,0,1,0,.17l0,.08.08-.13a1.51,1.51,0,0,1,.22-.22.36.36,0,0,1,.45.08,4.47,4.47,0,0,0,.27-.51c.05.17.11.35.17.56s-.16.09-.3.08l.08.07c-.12.29-.3.24-.48.22l.2-.31a.82.82,0,0,0-.6.25s.07,0,.09.06a.3.3,0,0,0-.14.06s0,0,.12,0c-.12.11-.23.21-.35.3l.14-.06c-.08.18-.15.33-.22.46.18,0,.4.36.59.65a2.66,2.66,0,0,1,.44,1.07c-.26-.21-.43,0-.74-.06.33-.23-.14-.67-.07-1.12,0,.23-.18.18-.23.12l.29.81c-.25,0-.18.17-.29.38.5-.16.33.6.49.93-.17,0-.34-.06-.3-.46-.38.44.59.57.27,1,0-.1,0-.15-.07-.19a.72.72,0,0,1,.06.46c0,.17-.1.35-.17.26v-.14A6.23,6.23,0,0,0,31,15.68a1.15,1.15,0,0,0,.43-.2,6.37,6.37,0,0,1-.73.59A7.68,7.68,0,0,0,33,14.65a3.7,3.7,0,0,0-.24.77.78.78,0,0,1-.66.66,1.79,1.79,0,0,0,1,0c-.17-.05-.25-.53-.06-.56.42.4.39.21.85.56-.16-.08,0-.65.26-.63,0,.08,0,.56-.07.62l.62-.56c-.15.1,0,.48.11.64-.06-.11.54,0,.71-.05L35.25,16c.7.09.69-.79,1.39-.76-.08.12-.21.71.15.79.16-.29.71-1.39,1.33-1.61l.12.17a1.52,1.52,0,0,0,.33-.19,1.21,1.21,0,0,1-.18.4c-.11.15-.26.31-.41.48a10.28,10.28,0,0,1-.84.82c.26.13.07.19.46.17.14.16-.21.24-.33.25l.92.1c-.17-.34,1-.34.89-.62l-.72.17-.5.18a.8.8,0,0,1,.35-.6,1.54,1.54,0,0,1,1-.3c.27.14.07.6.1.71a1.55,1.55,0,0,1,1-.13l-.31.17c.61.12.58-.34,1.23-.19a.27.27,0,0,1,.06-.1c0-.18.43-.35.24-.54-.39.15-1.57-.89-1.86-1.21a6.15,6.15,0,0,0,.56-.47c.15-.08.33,0,.5.21s.34.38.47.28a.92.92,0,0,1-.24-.35c.08-.2.28.16.24-.34-.34-.17,0-.79-.29-.24-.09-.36.07-.36.06-.76-.22.13-.75-.35-.85-.68.09,0,.2-.06.25-.1,0-.68.19-1.05.19-1.69.08-.05.18-.36.33-.23-.06-.1-.18-.15-.18-.32.29-.24,0,.33.4.15-.2,0-.28-.38-.4-.67-.31-.07-.06.56.06.75-.42,0-.86-.48-1.05-1.52-.11-.78.27-.1.21-.27a2.25,2.25,0,0,0,0-.59,3.05,3.05,0,0,0,.65-.35,1.92,1.92,0,0,1,1.22,0c.27.13.2.27.11.39s-.2.24-.18.33c-.47.11-.77-.17-1.18-.15l.5.12a.71.71,0,0,1-.6.08,6.89,6.89,0,0,0,1.8.17,4,4,0,0,1-.1.65c.09.06.18.24.29.07l0-.23c.22-.4.3.34.4-.08A2.11,2.11,0,0,1,43,9.66l-.31.09c.09,0,.19-.37.09-.52.07.1,0,.38-.1.54s-.11.36.09.46L43,9.91c.16.33.48.73.38,1.14.31-.19,0-.1.32-.38-.44.25,0-1-.44-.64a.59.59,0,0,0,.28-.45,3.17,3.17,0,0,1,.24-.86c-.1,0-.19.28-.14-.31a.26.26,0,0,1-.09-.09v0s0,0,0,0a.83.83,0,0,1-.15.34c-.23-.19-.23-1-.35-1.13,0-.33.12,0,.23-.22A2.5,2.5,0,0,0,43,7.08a1.19,1.19,0,0,0,.16-.3c-.1-.14-.44-.24.33-.33a.12.12,0,0,1,0,0V6.43h-.9a5.66,5.66,0,0,0-1.92-.09c-.53,0-1.08.25-.77.08l-.9.08.06.46-.06,0c0,.54.08,1.16.12,1.73a4.85,4.85,0,0,1,0,.85,1.41,1.41,0,0,1-.17.62,1.89,1.89,0,0,1,.06.83l-.19.07c.06.29-.2.86,0,1-.26.15-.29.5-.26.87l0,.28,0,.05s0,.07,0,.08l.25.1a1.61,1.61,0,0,0,.16.5l.22.2,0,.07c-.11.11-.61-.19-.8-.17,0-.08.06-.06.13,0-.28-.25-.17-.16-.66-.05A1.25,1.25,0,0,1,37,14a.39.39,0,0,1-.39,0h0a1.55,1.55,0,0,0-.22-.12.84.84,0,0,0,.19.12,2.06,2.06,0,0,0-.49.08L36,13.81h0c-.18-.09-.15.11,0,.3a.8.8,0,0,0-.24.14c-.15-.39-.48.13-.68-.28-.12.2-.91.15-1,.57,0-.05-.06-.08,0-.08-.19-.05-.45-.1-.55,0l0-.3a2.68,2.68,0,0,1-.37.41c-.14-.19-.1-.3.12-.53a1.51,1.51,0,0,1-.44.25,3.28,3.28,0,0,0-.53.24l.2-.2-.09,0c-.06-.05-.22-.1-.08-.27a1.78,1.78,0,0,0,.21-.95,7.08,7.08,0,0,1,.19-1.91c-.58.22.26-.52-.19-.57.14-.06.21-.22.33,0a2,2,0,0,1,0-.69.66.66,0,0,0,0-.28,1.17,1.17,0,0,0-.17-.43c.14-.12.2.18.28.07s-.12-.28,0-.39S33,9,33,9.19c0-1-.45-.92-.84-.78.19-.48.16-.72-.1-.77.13-.24.26-.62.31-.14l0-.6c-.66,0-1.62-.05-1.64.17a1,1,0,0,0-.57,0c-.6,0-.8,0-1.26,0v.3L29,7.23c.39.59.09.55.13,1.06l0,0c-.27,1,.14.49-.18,1.49l.24-.05c.52.08-.3.73-.11,1.21l.14-.17c.18.26-.7.73-.76,1-.05,0-.08-.09-.11-.17-.3.68.31.08.39.6-.17.09-.43-.12-.46.22-.14.17.54,1,.22,1.47.13-.1.26-.2.36,0s-.49,1-.08,1.31c0,.05-.07.07-.11.07.11.28.18.91.4,1.07-.82.26.41,1.74-.36,1.73l0,.86-.07,0a1,1,0,0,0,.31.94c0,.12-.12,0-.16,0a1.59,1.59,0,0,0,.26,1.55l-.25.07c.07.1,0,.39-.1.75a3.92,3.92,0,0,0,0,1.61.1.1,0,0,1-.11-.08,5.44,5.44,0,0,1-.06,1.82c1.05.13,2.45.27,2.63-.27l.87-.22c-.64,0-.63-.14-.58-.24s.1-.23-.12-.3a.86.86,0,0,1,.34,0c.08-.14.25-.19.28.15l0,0c.47.63.17-1,.49-.83v-.79l0-.72.08-1.09c.07-.72.14-1.43.15-2.13l-.37.16,0-.48c.09-.13.29-.17.27.17.21-.24-.17-.43-.25-.47s.18-.1.27,0,.16.16.16.12l0-.12,0,0c-.14-.14-.3-.23-.28-.46s.22.07.23,0,0,0,0-.06v-.15h.12l-.38-.27h0c0-.14.37,0-.09-.31a1.73,1.73,0,0,0,1,.3H34a1.1,1.1,0,0,1,.44.05,2.08,2.08,0,0,1,1.22-.18c-.11-.06-.18-.39.22-.35-.15.67.73.29,1,.77-.28-.31,1.14-.07.69-.53.33.06,0,.25.27.41a1.78,1.78,0,0,1,.52-.08.78.78,0,0,1,.31,0,2.4,2.4,0,0,0,.53.13.59.59,0,0,0,0,.14c.08-.05.22-.27.35-.25a3.53,3.53,0,0,1-.44.57s.51-.13.2.17c.08,0,.19-.12.22-.05a4.07,4.07,0,0,0-.14,1.29c0,.49,0,1,.05,1.47l0,.74v.38l0,.43a15.84,15.84,0,0,1-.35,2.39c.17-.56.19-.29.2,0,0-.23.21-.19.33-.34l-.08.37c.19.08.41.17.65.25.42-.33,1.3,0,1.51-.34l-.36.06c.29-.19.16-.4.09-.62a.71.71,0,0,1,0-.69c-.31.25-.4,0-.46-.14.1-.25.13-.38-.12-.4.1-.14.15,0,.26-.13-.2.05-.24-.09-.15-.34h.05a4.34,4.34,0,0,1,.07-1c.06-.38.15-.77.22-1.34l-.24.09a.9.9,0,0,1,.16-.41c-.35-.28,0,.68-.41.43.48-.35,0-1.67.55-2,0-.59-.27.19-.27-.37l.15-.18L41.13,18a1,1,0,0,1,.34-.71,2.23,2.23,0,0,0,.05.36,7.27,7.27,0,0,0,0-1.66l-.09.66c0-.28,0-.57,0-.88l-2.16,0-.53,0-.46,0a4.13,4.13,0,0,0-.63.13l.07.11c-.75.21-.6-.12-1.43,0l0,0a1.06,1.06,0,0,1-.62.15c.21-.13-.39-.25-.11-.4-.82.22-.41.18-.95.59l-.13-.18a.79.79,0,0,1-.61.3c.34-.16-.26-.28.12-.49a2,2,0,0,0-1.29,0,1.19,1.19,0,0,1-1.09-.17c-.22.52,1.23.29,1,.4.28.17-.25.38-.58.33s-.6-.28-1.18-.47a1,1,0,0,0-.17.68c0-.1,0-.14,0-.24-.13.32.17.87,0,1.25.31.36,0,.64.38.76l-.09-.9c.1.57.56,1.09.34,1.63A.82.82,0,0,1,31,18.9c-.12.17.07.33-.05.52-.2,0-.22-.23-.23-.46v-.19l0-.28a1.94,1.94,0,0,0-.13-.54c-.09.12,0,.44,0,.65s.05.28-.17.19c.55.28-.07.69.35,1.16l-.24,0a.84.84,0,0,1,.15.37L30.32,20c.26.38-.23.73-.09,1.1,0-.77.29-.17.46-.5.32.95-.62.55-.5,1.61,0-.14.14-.54.25-.31a1.34,1.34,0,0,1-.27.59c0,.28.25,0,.39.12-.29.06.12.15.21.38l-.24-.09c-.15.26.5.39.32.69a5.38,5.38,0,0,0-.34-.43l.09.25-.27-.29.09.16c.14.09.08.05.14,0,0,.17.14.44,0,.45,0-.14.05-.23,0-.2.1-.15.09-.34,0-.11a1.81,1.81,0,0,0,0-.23c.1-.17.26,0,.3,0a.2.2,0,0,0-.11.06.22.22,0,0,1-.06.18.38.38,0,0,1-.15,0,.4.4,0,0,1,.23-.17s-.13,0-.15-.09a2.21,2.21,0,0,1,.49-.23.29.29,0,0,1-.22-.05c.08-.06.23-.18.31-.18s0,0,0-.05l-.06,0,0,0,0-.09a1.25,1.25,0,0,1-.1-.78.25.25,0,0,1-.1-.19c0-.48.28-.9,0-1.47l.35-.33c-.08-.44-.44.44-.57-.3-.11-.53.3-.2.39-.38-.17-.26-.53-.72-.25-1.2A1.3,1.3,0,0,1,30.88,18.27Zm-.15-5.49c.05.1.2.31.06.39C30.52,13.05,30.65,13,30.73,12.78Zm.36-3.55c-.08,0,0-.12.05-.27A.36.36,0,0,1,31.09,9.23ZM41.83,6.57h0C41.29,6.48,41.47,6.52,41.83,6.57Zm1,.1c.12,0,.15-.07.13-.1a1.42,1.42,0,0,1-.62,0C42.39,6.68,42.48,6.73,42.83,6.67ZM32.57,18.06H32.5C32.43,17.9,32.5,18,32.57,18.06Z"/><path class="cls-2" d="M30.76,8.8a.8.8,0,0,1,.13-.13S30.8,8.71,30.76,8.8Z"/><path class="cls-2" d="M31,21.69v0l0,0Z"/><path class="cls-2" d="M41.26,13.89a.41.41,0,0,1-.12.25C41.2,14.17,41.25,14.12,41.26,13.89Z"/><path class="cls-2" d="M43.72,10.12l-.07-.32a.41.41,0,0,1-.08.28C43.63,10.08,43.71,10,43.72,10.12Z"/><path class="cls-2" d="M42.23,12.86c0,.05,0,.1,0,.14h.11C42.36,12.79,42.27,12.66,42.23,12.86Z"/><path class="cls-2" d="M42.92,10.41c-.21,0-.14.22-.1.44v0C43.1,10.88,43,10.64,42.92,10.41Z"/><path class="cls-2" d="M42.83,10.9a.74.74,0,0,1,0,.21C42.94,11.13,42.85,11,42.83,10.9Z"/><path class="cls-2" d="M43.44,7.18c0,.21.26-.09.18.07.13,0,.05-.25,0-.36S43.37,6.77,43.44,7.18Z"/><polygon class="cls-2" points="42.25 10.59 42.5 10.51 42.3 10.38 42.25 10.59"/><path class="cls-2" d="M42.43,8.76l-.07.4s.07,0,.09.09C42.46,9,42.51,8.72,42.43,8.76Z"/><path class="cls-2" d="M42.45,9.25a.57.57,0,0,0,0,.31A1.2,1.2,0,0,0,42.45,9.25Z"/><polygon class="cls-2" points="42.17 10.1 42.23 10 42.24 9.75 42.17 10.1"/><path class="cls-2" d="M40.05,8.32l.07.46c.09.08.14,0,.1-.17S40.13,8.3,40.05,8.32Z"/><path class="cls-2" d="M41,8.18A1.21,1.21,0,0,1,40.74,8L41,8.3A.49.49,0,0,1,41,8.18Z"/><path class="cls-2" d="M40.81,8.76c.08.1.24.5.22.19C41,8.88,40.88,8.55,40.81,8.76Z"/><path class="cls-2" d="M40.41,14.31v-.1L39.9,14Z"/><path class="cls-2" d="M36,16.44c.46.12.11-.32.52-.16.11-.12-.33-.13-.22-.23C36,16.17,35.88,16.1,36,16.44Z"/><path class="cls-2" d="M36.3,16.05l.14-.08A.39.39,0,0,0,36.3,16.05Z"/><polygon class="cls-2" points="40.93 25.73 41.38 25.84 41.12 25.66 40.93 25.73"/><path class="cls-2" d="M41.9,25.35l.07.33.28-.3C42.15,25.4,42,25.43,41.9,25.35Z"/><path class="cls-2" d="M31.38,12l-.08,0c-.08,0-.09.11-.1.25Z"/><polygon class="cls-2" points="31.14 15.95 31.14 15.88 30.85 16.01 31.14 15.95"/><path class="cls-2" d="M31.51,19.3c0-.14-.05-.3,0-.44C31.52,19.16,31.15,19.34,31.51,19.3Z"/><path class="cls-2" d="M22.68,39.63q0,7.07-6.38,7.07-6.1,0-6.1-6.8V29.64h2V39.77q0,5.16,4.35,5.16,4.2,0,4.2-5V29.64h2Z"/><path class="cls-3" d="M22.68,39.63q0,7.07-6.38,7.07-6.1,0-6.1-6.8V29.64h2V39.77q0,5.16,4.35,5.16,4.2,0,4.2-5V29.64h2Z"/><path class="cls-2" d="M23.89,39.54c0,.12.2.07.23.09C24.08,39.43,23.84,39.54,23.89,39.54Z"/><polygon class="cls-2" points="23.42 37.56 23.5 37.59 23.3 37.3 23.42 37.56"/><path class="cls-2" d="M23.42,35.71c-.35.17.06.67-.07,1l-.08,0,.29.15A3.6,3.6,0,0,1,23.42,35.71Z"/><path class="cls-2" d="M24.19,34.72c-.13.06-.11-.21,0,.23l0,0A.58.58,0,0,1,24.19,34.72Z"/><path class="cls-2" d="M24.19,34.91c0,.19.11-.13,0,0Z"/><path class="cls-2" d="M24.11,34l.12.26c.08-.06.1-.29.16-.2C24.32,33.81,24.24,33.86,24.11,34Z"/><path class="cls-2" d="M23.85,33.77l0,.13S24,33.84,23.85,33.77Z"/><path class="cls-2" d="M24,34.18l-.11-.28c-.06,0-.17,0,0,.13C23.83,34,23.94,34.06,24,34.18Z"/><path class="cls-2" d="M24,34.34c-.08.15-.13.33-.25.07C23.76,34.9,24,34.83,24,34.34Z"/><path class="cls-2" d="M23.06,35.61l-.11.2.12.16C23,35.89,23.17,35.6,23.06,35.61Z"/><path class="cls-2" d="M24.29,32.41c-.07,0-.2.09-.3.11l.09.19C24.13,32.61,24.18,32.42,24.29,32.41Z"/><path class="cls-2" d="M24,32.52l-.13-.29C23.85,32.49,23.91,32.53,24,32.52Z"/><polygon class="cls-2" points="23.45 33.72 23.73 34.19 23.45 33.63 23.45 33.72"/><path class="cls-2" d="M24.3,31.13l.18.28c-.09-.18-.18-.34-.27-.5Z"/><path class="cls-2" d="M24.27,29.82c.15.15.25-.44.34-.24a1.83,1.83,0,0,0-.27-.82A2.13,2.13,0,0,1,24.27,29.82Z"/><path class="cls-2" d="M24.18,28.44a1.91,1.91,0,0,0,.16.32A.61.61,0,0,0,24.18,28.44Z"/><path class="cls-2" d="M23.9,31.75c.05,0,.17,0,.22-.25a.9.9,0,0,1-.22.14Z"/><path class="cls-2" d="M23.9,31.64h0v0Z"/><path class="cls-2" d="M23.9,31.78v0S23.87,31.77,23.9,31.78Z"/><path class="cls-2" d="M23.64,33c-.11-.17-.24-.52-.42-.18C23.36,32.92,23.46,32.73,23.64,33Z"/><path class="cls-2" d="M23.63,31.92l-.05.3c.06,0,.14-.06.2,0Z"/><polygon class="cls-2" points="23.56 31.77 23.63 31.92 23.65 31.8 23.56 31.77"/><path class="cls-2" d="M24,29.48a1.52,1.52,0,0,1-.12-.62,7,7,0,0,0-.06.88C23.87,29.73,24,29.79,24,29.48Z"/><path class="cls-2" d="M23.92,30.58v0S23.88,30.59,23.92,30.58Z"/><path class="cls-2" d="M20.92,28.46l.07,0v0Z"/><path class="cls-2" d="M23.76,29.81a.43.43,0,0,0,.08.4,3.43,3.43,0,0,1,0-.47S23.75,29.75,23.76,29.81Z"/><path class="cls-2" d="M23.41,28.24a4.43,4.43,0,0,0,.43.12C23.76,28.29,23.51,28.19,23.41,28.24Z"/><path class="cls-2" d="M24,30.44v0C24,30.38,24,30.4,24,30.44Z"/><path class="cls-2" d="M24,30.44a.82.82,0,0,0-.13-.23,1.38,1.38,0,0,0,.07.32A.47.47,0,0,1,24,30.44Z"/><path class="cls-2" d="M21,29.82c-.19-.19.14-.38.51-.16.25-.15.18-.8-.54-1.17,0,.09,0,.17-.48.29.3.1,1.23.25.86.43-.52.1-.48-.07-.87-.18.25.15,0,.24,0,.37a1.19,1.19,0,0,0,.35.52l-.07-.23.12-.06C20.92,29.68,20.89,29.77,21,29.82Z"/><path class="cls-2" d="M22.21,28.51l.28,0a3.76,3.76,0,0,1-.94-.27c-.49.1-.55.17-.56.24l1.32,0Z"/><path class="cls-2" d="M23.68,28.49c-.43.21-1,.31-.84.54a1.53,1.53,0,0,0,.55-.1c.06,0,.13,0,.18.1a1.36,1.36,0,0,1,0-.27c-.13,0,0,0,.06-.06s.11.09.16-.16l-.11,0,.16,0a2.4,2.4,0,0,1,0,.37l.08-.48-.1,0h0s0,.05,0,0h0l-.14.08c-.33,0,0-.06.14-.08l0,0h0l-1.37.12A9,9,0,0,0,23.68,28.49Z"/><path class="cls-2" d="M22.75,32.49a.06.06,0,0,1,.05,0S22.76,32.42,22.75,32.49Z"/><path class="cls-2" d="M22.88,32.25s.12.08.1.21-.11,0-.18,0,.16.29.26,0l0,0c.08-.23.34-.54.37-.49A1.33,1.33,0,0,0,22.88,32.25Z"/><path class="cls-2" d="M23.3,30.68l-.1-.58-.19.4.11-.07C23.08,30.79,23.22,30.66,23.3,30.68Z"/><path class="cls-2" d="M20.75,28.35c0-.08.05-.15.07-.23a5.14,5.14,0,0,0-.51.32Z"/><polygon class="cls-2" points="19.45 28.46 19.25 28.23 19.37 28.63 19.45 28.46"/><path class="cls-2" d="M11,30.86h0v0Z"/><path class="cls-2" d="M11,31.26l.1,0C11,31.23,11,31.24,11,31.26Z"/><path class="cls-2" d="M18.12,43.36c-.21-.11-.42-.32-.33-.12l.12.18A.19.19,0,0,1,18.12,43.36Z"/><path class="cls-2" d="M12.11,39.19l-.06.06.2.14Z"/><path class="cls-2" d="M11.22,39l.14-.27A.84.84,0,0,0,11.22,39Z"/><path class="cls-2" d="M11.61,33.22l.22.17C11.83,33.13,11.72,33.24,11.61,33.22Z"/><path class="cls-2" d="M19.53,36.14a1.17,1.17,0,0,0-.13.44C19.52,36.37,19.71,36.19,19.53,36.14Z"/><path class="cls-2" d="M13.28,29.29c0-.11-.09-.13-.14-.09S13.22,29.36,13.28,29.29Z"/><path class="cls-2" d="M19.4,37.1a.93.93,0,0,0,.05-.1,1,1,0,0,1-.05-.42A.42.42,0,0,0,19.4,37.1Z"/><path class="cls-2" d="M19,45H19S19,45,19,45Z"/><path class="cls-2" d="M23.51,41.48a1.48,1.48,0,0,1,0,.27A.48.48,0,0,0,23.51,41.48Z"/><path class="cls-2" d="M19.35,32.23c0-.14,0,0,0,0Z"/><path class="cls-2" d="M20.21,31.58a.14.14,0,0,0,.11.05A.19.19,0,0,1,20.21,31.58Z"/><path class="cls-2" d="M20.75,38.43h0S20.78,38.41,20.75,38.43Z"/><path class="cls-2" d="M19.45,32a.76.76,0,0,0-.06.18A.51.51,0,0,0,19.45,32Z"/><path class="cls-2" d="M19.35,32.05l0-.11S19.31,31.93,19.35,32.05Z"/><path class="cls-2" d="M19.37,32.41a.49.49,0,0,1,0-.21l0,0Z"/><path class="cls-2" d="M11.16,42.49v0C11.26,42.62,11.24,42.57,11.16,42.49Z"/><polygon class="cls-2" points="15.11 45.8 15.13 45.79 15.11 45.78 15.11 45.8"/><path class="cls-2" d="M14.49,45.8c.33-.17.45-.12.62,0,0-.22,0-.44,0-.65A4.57,4.57,0,0,1,14.49,45.8Z"/><path class="cls-2" d="M11.45,31a.56.56,0,0,1,.19.07,1.51,1.51,0,0,0,.48.46c-.26-.2-.33-.29-.36-.36-.24,0-.53,0-.56-.39a.35.35,0,0,1-.06.14s0,0,0,0c-.09.16-.14,0-.1-.11a.72.72,0,0,1,.12-.28l0,0a.48.48,0,0,1-.19.22.32.32,0,0,1,.16,0c0,.07-.13.13-.11.07l.05.25h0a.55.55,0,0,1,.34.11c-.1.11-.07,0-.15,0l.16.19c-.18.08-.35-.07-.32-.17-.34.15-.3.13-.22.18s.09.06.1.18a.72.72,0,0,1-.11.42l-.08-.34c-.39.22-.25.49-.49.87.13-.09.61-.77.78-.38a.42.42,0,0,0,.06.47c-.24,0-.18.21-.17.47h-.32c.09.28.25.26.4.42,0,.32-.28.38-.49.46-.05.5.4-.35.46.24a1.78,1.78,0,0,0,.2,1.22c-.11.29-.2-.05-.29,0l.25.26c0,.06-.08,0-.12,0,.1.22.32,0,.41.36.35.1-.52.71-.12,1.14-.09.1-.19,0-.32,0a3.32,3.32,0,0,0,.55,1l-.21.41c.24-.3.52.08.75.42a3.63,3.63,0,0,0,.27-.26l.17.53c-.05.07-.16,0-.3-.07l.08.09c-.12.2-.3.1-.48,0l.2-.19a.91.91,0,0,0-.6-.23.34.34,0,0,1,.09.17.19.19,0,0,0-.13,0s0,.08.11.16l-.35.13.14,0a6,6,0,0,0-.21.74,9.56,9.56,0,0,1,1.26,1.68c-.3-.13-.43.06-.73.13.26-.31-.28-.65-.26-1.12,0,.24-.16.21-.22.15.14.27.27.52.43.77-.25,0-.15.22-.2.46.44-.29.5.52.8.76-.14.09-.34.09-.46-.33-.17.6.76.32.7.85-.05-.09-.06-.15-.15-.14.23.14.5.67.3.66L12.51,44a2.54,2.54,0,0,0,1,.93c.44.23.85.23,1,.06a2.21,2.21,0,0,1-.34.5,4.44,4.44,0,0,0,1.46-1.06c-.16.34.12,1.27-.49,1.37a.87.87,0,0,0,.72.09c-.11-.07-.21-.56-.06-.57.35.44.24.23.74.6-.17-.08,0-.64.25-.64,0,.09,0,.56-.05.63a5.67,5.67,0,0,0,.59-.61c-.14.12,0,.48.2.62-.09-.09.59-.09.76-.21a3,3,0,0,1-.32-.06c.78-.12.48-.94,1-1.23,0,.14.18.74.57.57a9.06,9.06,0,0,0-.12-1,5.35,5.35,0,0,1-.14-1h.19c0-.14,0-.27,0-.4a2.68,2.68,0,0,1,.43,1,2.47,2.47,0,0,1,0,1.21c.32-.1.2.09.53-.27.23,0,0,.36-.12.48a5.69,5.69,0,0,0,.84-.86c-.29-.14.12-.91-.18-1a4,4,0,0,1-.29,1.17,1.66,1.66,0,0,1-.11-1.6c.18-.11.51.33.61.37-.05-.13,0-.7.11-.74l.08.34c.25-.36-.26-.72.14-1.09,0-.15.5-.41.29-.46A3,3,0,0,1,20,41.05a8.28,8.28,0,0,1,.61-.79c.31-.23.71.37,1,.18-.09,0-.2-.15-.24-.2s.29.07.25-.27c-.34,0,0-.63-.28-.15-.1-.3.07-.32.05-.68-.22.11-.75-.32-.84-.63a.41.41,0,0,0,.25-.08c0-.63.18-1,.18-1.55.09-.05.19-.33.33-.21-.06-.09-.17-.16-.18-.34.29-.35.05.4.4.13-.2,0-.27-.46-.4-.72-.3.08-.06.59.07.85-.42,0-.87-.45-1.06-1.06s.27-.21.21-.29c.08-.91-.73-.78-.43-1.53.27-.3.53,0,.73-.08.1.39-.17.6-.16.87l.13-.33a.64.64,0,0,1,.07.54c.25-.26.05-1.54.27-2.24-.09-.13-.18-.35-.29-.24l0,.22c-.22.2-.3-.42-.4-.14-.08-.15-.17-.31-.24-.48a1.18,1.18,0,0,1-.06-.27,1.49,1.49,0,0,1,0-.42l.31,0c-.09,0-.19.32-.09.47-.07-.11,0-.31.1-.49a.44.44,0,0,0-.09-.55,2.77,2.77,0,0,0-.21.31,4,4,0,0,1-.38-1.74c-.3,0,0,.14-.32.35.44-.11,0,1.57.44,1.15a.71.71,0,0,0-.28.54,1,1,0,0,1-.24.61c.1,0,.19-.13.14.19a.28.28,0,0,1,.09.06v0h0s0,0,0,0a.47.47,0,0,1,.15-.16c.23.16.23.65.35.82,0,.19-.12-.08-.23,0l.18.25c-.22,0-.37.49-.5.05v.39a.88.88,0,0,0-.08.75c0,.19.25.47.07.31l.14.61h-.06c0,.61.37,1.25,0,1.94a1.39,1.39,0,0,1,.06.76l-.19.07c.07.26-.2.79,0,.9-.53.27-.11,1.32-.22,1.66l.25,0a3.9,3.9,0,0,0,.06.87l.23,0c.13.34-.31.71-.45,1.06-.07-.06,0-.14.07-.19-.33.13-.33.36-.38.6s-.11.51-.38.49c0,.13-.11.14-.2.13s0,0,0,0l0,0-.17,0a.41.41,0,0,0,.16,0,2.1,2.1,0,0,0-.24.22l-.13-.2,0,0c-.14,0-.05.13.07.28a1.18,1.18,0,0,0-.11.19c-.19-.33-.31.22-.53-.15-.05.22-.66.22-.74.63,0,0,0-.08,0-.08-.17,0-.33-.11-.49,0L16.07,44l-.4.37c-.2-.22-.23-.35,0-.54-.55.25-.4.06-.92.25l.1-.17c-.13-.05-.48.08-.47-.12s-.33-.46-.59-.82a2,2,0,0,1-.4-1.33c-.52.3.15-.45-.28-.4.13-.08.18-.21.32-.09-.2-.43.14-.69-.26-1,.14-.06.21.09.29,0s-.13-.14,0-.19.11.06.17.13c0-.46-.45-.54-.85-.57.19-.28.16-.41-.1-.61.13-.09.27-.25.31.08,0-.19.19-1.15-.13-1.17.09-.05,0-.26,0-.31a5.08,5.08,0,0,0,0-.87l-.05.11c-.39-.16-.09-.34-.14-.67h0c.28-.77-.13-.34.19-1.09l-.24,0c-.52-.07.3-.67.1-1.11l-.13.16c-.18-.24.7-.67.76-.91.05-.05.07.08.11.16.3-.63-.32-.08-.39-.55.17-.09.43.11.46-.21.07-.08-.07-.31-.18-.57a1.11,1.11,0,0,1,0-.94c-.13.18-.26.31-.36,0a4.37,4.37,0,0,1,.18-.95c.07-.37.11-.75-.1-.81a.67.67,0,0,1,.1-.18c0-.1-.07-.27-.1-.43a4,4,0,0,0-1.29.29c0-.3-.51-.33-1-.28S9.84,29,9.52,29c0,.2-.06.27-.27.09l.05,1.19-.08-.06a1.72,1.72,0,0,0,.31,1.3c0,.15-.12,0-.16,0a1.4,1.4,0,0,0,.26,1.44L9.38,33c.15.16-.39,1.06-.1,1.78a.18.18,0,0,1-.11-.08c.29.81-.69,1.94.22,2.23l.22.54c.07-.69.39.1.54-.18,0,.27-.27.7-.32.36l.05,0c-.47-.12-.17.86-.49.84a19.51,19.51,0,0,0,0,4.18l.32-.24.09.48c-.05.14-.23.25-.3-.1-.16.23.32.53.41.5.09.72-.5-.12-.44.08l.13.28,0-.08c.22.18.36.14.53.54s-.14.23-.11.34,0,0,.07.16l.33.59.1-.39c.26.18.34.5.42.08-.08.32.27.84.73,1.21s1,.6,1.07.73a3.46,3.46,0,0,1,1.24.27c-.09-.1-.07-.41.29-.29-.29.63.64.44.92.93-.26-.32,1.15,0,.71-.49.32.07,0,.25.26.42.77-.26,1.77.11,2.78-.28,0-.09-.21-.17,0-.35a4.67,4.67,0,0,0,.66.23c.18-.12,0-.54.45-.41-.09,0-.21-.11-.09-.19a4,4,0,0,0,2.31-2c.51-.91.81-1.84,1.37-2.76-.21.24-.19.06-.17-.14-.06.12-.21,0-.33,0,.16-.25.29-.5.43-.76-.31-.17,0-.86-.29-1l.05.25c-.36-.34-.84.41-1.32.32.19.18,0,.4-.14.62s-.32.46-.08.78c-.12.09-.13-.13-.25-.09.17.17.17.34,0,.61l0,0a3,3,0,0,1-1.14,1.61l.22.1a.41.41,0,0,1-.32.13c.13.4.34-.38.53,0-.26,0-.48.19-.72.39s-.51.35-.73.14c-.23.13.21.2,0,.33l-.13-.09,0,.2a.36.36,0,0,1-.4-.2s.1-.08.13-.11c-.26-.06-.58.28-.68.25h.28a16.8,16.8,0,0,1-2.55.56l.06.11c-.65.19-.5-.14-1.18-.14l0,0a.74.74,0,0,1-.53,0c.19-.08-.23-.34,0-.41-.67,0-.34.08-.9.3l0-.21a.53.53,0,0,1-.58,0c.32,0,0-.34.34-.37a1,1,0,0,0-.6-.47c-.18-.08-.36-.15-.21-.46-.29.05-.26.2-.17.35s.25.23.15.21c0,.22-.48.1-.58-.14s.28-.69,0-1.13c0,.05.06,0,.08.08,0-.24-.34-.27-.22-.59-.34,0-.09-.31-.49-.23l.26.47c-.18-.23-.74-.38-.64-1a.92.92,0,0,1,.31.23c.08-.17-.15-.26-.07-.43.41-.05.23.62.63.8.11-.18-.45-.46,0-.44-.58-.08-.07-.52-.53-.83h.24c0-.06-.18-.16-.19-.28l.34.16c-.31-.28.16-.62,0-.9.06.62-.27.16-.42.45-.38-.8.59-.47.45-1.39,0,.14-.13.48-.25.29a1.2,1.2,0,0,1,.27-.54c-.05-.65-.25.1-.39-.18.28-.22-.12-.31-.21-.6h.24c.15-.73-.5-.19-.32-.85l.34.28-.09-.35.27.07a.92.92,0,0,1-.07-.85c-.17.08-.44,0-.44-.38s.22.13.19-.33c.15.1.34.21.12.41.08,0,.15.11.23.13.16-.24,0-.6,0-.77a.43.43,0,0,1,0,.18l-.34-.67c.09-.1.16,0,.24.07,0-.14-.14-.23-.16-.43.19,0,.4,0,.49.32l-.22-.64c.09,0,.23-.32.31-.24.11-.35-.38-.87-.23-1.33a.28.28,0,0,1-.1-.18c0-.44.28-.82,0-1.34a.43.43,0,0,1,.35-.15.56.56,0,0,0-.26,0c-.12,0-.24,0-.31-.14s.3,0,.4,0c-.18-.09-.54-.58-.26-.51C11.47,31,11.42,31,11.45,31Zm-.38,1.24c-.05-.1-.21-.29-.06-.36C11.28,32,11.15,32.12,11.07,32.28Zm.58,7.65c-.08-.07,0-.19,0-.32A.47.47,0,0,1,11.65,39.93Zm7.9-6.24h0C19.47,33.92,19.51,33.84,19.55,33.69Zm.1-.45a.06.06,0,0,0-.1,0c.07,0,.07.14.05.25S19.71,33.37,19.65,33.24Zm-9.47,11.2v-.12C10.35,44.49,10.27,44.46,10.18,44.44Z"/><path class="cls-2" d="M11.32,39.06a.22.22,0,0,1,.13,0S11.36,39,11.32,39.06Z"/><path class="cls-2" d="M11.57,33.19v0h0Z"/><path class="cls-2" d="M21.69,40.25a.37.37,0,0,1-.13.19C21.62,40.45,21.67,40.41,21.69,40.25Z"/><path class="cls-2" d="M19.25,30.29l.06.53a.76.76,0,0,1,.08-.42C19.33,30.39,19.25,30.45,19.25,30.29Z"/><path class="cls-2" d="M22,29.66c.06,0,.09,0,.15,0l0-.11C22,29.52,21.84,29.62,22,29.66Z"/><path class="cls-2" d="M20.05,30.23c.2.08.13-.18.09-.47v0C19.86,29.51,20,29.9,20.05,30.23Z"/><path class="cls-2" d="M20.14,29.69a1.09,1.09,0,0,1,0-.25C20,29.31,20.11,29.52,20.14,29.69Z"/><path class="cls-2" d="M19.52,32.66c.05-.09-.26-.06-.18-.11C19.09,32.44,19.66,33.19,19.52,32.66Z"/><polygon class="cls-2" points="20.71 30.41 20.46 30.34 20.66 30.57 20.71 30.41"/><path class="cls-2" d="M20.53,32l.07-.32s-.07,0-.09-.09C20.51,31.8,20.46,32,20.53,32Z"/><path class="cls-2" d="M20.51,31.6a.53.53,0,0,0,0-.29A1.06,1.06,0,0,0,20.51,31.6Z"/><polygon class="cls-2" points="20.79 30.88 20.74 30.96 20.72 31.18 20.79 30.88"/><path class="cls-2" d="M20.48,35.49l.07.35c.09,0,.14-.06.11-.19S20.56,35.44,20.48,35.49Z"/><path class="cls-2" d="M21.17,34.42c-.06.1-.11.1-.19.16h.31Z"/><path class="cls-2" d="M21.24,35.45c.08,0,.25.52.23.07C21.38,35.48,21.31,35.13,21.24,35.45Z"/><polygon class="cls-2" points="20.81 40.78 20.81 40.69 20.31 40.67 20.81 40.78"/><path class="cls-2" d="M18.94,45.83c.57-.14,0-.32.51-.43.05-.17-.42.09-.35-.07C18.86,45.58,18.67,45.59,18.94,45.83Z"/><path class="cls-2" d="M19.1,45.33l.11-.14A.44.44,0,0,0,19.1,45.33Z"/><polygon class="cls-2" points="23.88 40.44 23.99 40.15 23.82 40.33 23.88 40.44"/><path class="cls-2" d="M23.52,39.87l.32-.06-.28-.18C23.57,39.7,23.59,39.82,23.52,39.87Z"/><path class="cls-2" d="M10.42,33l.08,0c.08,0,.09-.1.1-.23Z"/><path class="cls-2" d="M10.8,31.14h0a3.22,3.22,0,0,0,.26-.29C11,31,10.88,31.05,10.8,31.14Z"/><path class="cls-2" d="M12.07,31.55l0,0C12.09,31.54,11.71,31.45,12.07,31.55Z"/><path class="cls-2" d="M42.62,46.42H40.44l-1.77-4.71H31.55l-1.67,4.71H27.69l6.44-16.78h2ZM38,40,35.39,32.8a8,8,0,0,1-.26-1.12h0a6.58,6.58,0,0,1-.27,1.12L32.21,40Z"/><path class="cls-3" d="M42.62,46.42H40.44l-1.77-4.71H31.55l-1.67,4.71H27.69l6.44-16.78h2ZM38,40,35.39,32.8a8,8,0,0,1-.26-1.12h0a6.58,6.58,0,0,1-.27,1.12L32.21,40Z"/><path class="cls-2" d="M38,38.73s0-.19,0-.23S38,38.79,38,38.73Z"/><polygon class="cls-2" points="37.43 39.21 37.44 39.12 37.35 39.33 37.43 39.21"/><path class="cls-2" d="M36.89,39.2c0,.36.2-.05.29.07l0,.08,0-.28C37.12,39.11,37,39.3,36.89,39.2Z"/><path class="cls-2" d="M36.61,38.43c0,.14-.06.12.06,0v0Z"/><path class="cls-2" d="M36.66,38.44c.06,0,0-.12,0,0Z"/><path class="cls-2" d="M36.4,38.52l.08-.12c0-.09-.08-.1-.06-.16S36.36,38.39,36.4,38.52Z"/><path class="cls-2" d="M36.33,38.78l0-.05S36.35,38.68,36.33,38.78Z"/><path class="cls-2" d="M36.45,38.62l-.08.11c0,.06,0,.17,0,0C36.4,38.79,36.42,38.69,36.45,38.62Z"/><path class="cls-2" d="M36.5,38.67c0,.08.09.13,0,.25C36.66,38.87,36.64,38.62,36.5,38.67Z"/><path class="cls-2" d="M36.87,39.57l.05.11,0-.12C36.94,39.62,36.86,39.46,36.87,39.57Z"/><path class="cls-2" d="M35.94,38.34c0,.07,0,.2,0,.29l.06-.08A.41.41,0,0,1,35.94,38.34Z"/><path class="cls-2" d="M36,38.63l-.08.14C36,38.78,36,38.72,36,38.63Z"/><polygon class="cls-2" points="36.32 39.18 36.45 38.9 36.29 39.18 36.32 39.18"/><polygon class="cls-2" points="35.63 38.33 35.68 38.15 35.59 38.42 35.63 38.33"/><path class="cls-2" d="M35.42,38.36c0-.15,0-.25,0-.34a.74.74,0,0,0-.15.26C35.31,38.22,35.36,38.24,35.42,38.36Z"/><path class="cls-2" d="M35.19,38.45a.54.54,0,0,0,.07-.17Z"/><path class="cls-2" d="M35.75,38.73a.46.46,0,0,0-.06-.22l0,.21Z"/><path class="cls-2" d="M35.72,38.73h-.07Z"/><path class="cls-2" d="M35.76,38.73h0S35.76,38.76,35.76,38.73Z"/><path class="cls-2" d="M36.11,39c0,.12-.15.25-.06.43C36.09,39.27,36,39.16,36.11,39Z"/><path class="cls-2" d="M35.8,39l.09,0a.41.41,0,0,1,0-.19Z"/><polygon class="cls-2" points="35.76 39.06 35.8 38.99 35.77 38.98 35.76 39.06"/><path class="cls-2" d="M35.34,38.65c0,.09-.08.1-.12.11a.21.21,0,0,0,.15.07C35.37,38.76,35.39,38.64,35.34,38.65Z"/><path class="cls-2" d="M35.53,38.71h0S35.53,38.74,35.53,38.71Z"/><polygon class="cls-2" points="34.88 38.76 34.88 38.8 34.89 38.76 34.88 38.76"/><path class="cls-2" d="M35.37,38.87s.06,0,.09-.08a.18.18,0,0,1-.09,0S35.36,38.88,35.37,38.87Z"/><path class="cls-2" d="M35.07,38.55a.67.67,0,0,0,.06.12C35.11,38.6,35.07,38.49,35.07,38.55Z"/><path class="cls-2" d="M35.5,38.66h0S35.5,38.63,35.5,38.66Z"/><path class="cls-2" d="M35.5,38.66a1,1,0,0,0,0,.13l.06-.07Z"/><path class="cls-2" d="M34.59,40.13c0-.2.16-.38.22-.17a4.34,4.34,0,0,0,.07-1.16.64.64,0,0,1-.07.28c0,.11.09.26,0,.43s-.06-.07-.08-.17c0,.25-.18.36-.25.72l.13-.13C34.62,40,34.57,40.08,34.59,40.13Z"/><path class="cls-2" d="M35,38.82s0,0,0,0a.88.88,0,0,1,0-.27c0,.09,0,.17,0,.23l.06,0Z"/><path class="cls-2" d="M35.12,38.8c0,.21-.11.3-.06.53.11,0,.08-.17.14-.27-.17.06,0-.12-.07-.24a.16.16,0,0,1,.09-.06.76.76,0,0,1-.09-.09h0v0h0v.08s0,0,0-.08v0h0L35,38.8S35.05,38.82,35.12,38.8Z"/><path class="cls-2" d="M36,39.87v0S35.94,39.87,36,39.87Z"/><path class="cls-2" d="M35.9,39.74s0-.11.06-.09,0,.1,0,.17a.24.24,0,0,0,0-.25v0a.9.9,0,0,1-.15-.37A3,3,0,0,0,35.9,39.74Z"/><path class="cls-2" d="M35.51,39.32l-.14.11.07.19V39.5C35.51,39.55,35.5,39.41,35.51,39.32Z"/><path class="cls-2" d="M34.89,38.65l0-.22-.06.32Z"/><polygon class="cls-2" points="34.83 38.68 34.87 38.48 34.83 38.6 34.83 38.68"/><path class="cls-2" d="M34.79,30.76v0Z"/><path class="cls-2" d="M34.68,30.84V31A.78.78,0,0,0,34.68,30.84Z"/><path class="cls-2" d="M34.24,38c.2,0,.5,0,.27,0l-.22,0S34.29,38,34.24,38Z"/><path class="cls-2" d="M33.94,35.05l0-.07.11.3Z"/><path class="cls-2" d="M33.44,33.83l.12.08A.21.21,0,0,0,33.44,33.83Z"/><path class="cls-2" d="M35.37,30.44l0-.29S35.37,30.29,35.37,30.44Z"/><path class="cls-2" d="M34.1,38.76l.11-.13C34.07,38.76,33.88,38.94,34.1,38.76Z"/><path class="cls-2" d="M35,35.52v0Z"/><path class="cls-2" d="M34.16,38.63l-.06,0c.06,0,.11-.06.11,0S34.37,38.48,34.16,38.63Z"/><path class="cls-2" d="M38.42,37.45l0,0S38.43,37.45,38.42,37.45Z"/><path class="cls-2" d="M37,39.81s0,0,0-.06S36.92,39.78,37,39.81Z"/><path class="cls-2" d="M34.63,38.59Z"/><path class="cls-2" d="M34.27,39.44l-.07.11A.72.72,0,0,1,34.27,39.44Z"/><path class="cls-2" d="M32.22,39.82Z"/><path class="cls-2" d="M34.59,38.69l0-.07A.25.25,0,0,1,34.59,38.69Z"/><path class="cls-2" d="M34.65,38.58v0S34.68,38.55,34.65,38.58Z"/><path class="cls-2" d="M34.61,38.6s0,0,0,0l0,0Z"/><path class="cls-2" d="M36.53,34v0C36.59,34,36.58,34,36.53,34Z"/><polygon class="cls-2" points="32.33 36.69 32.34 36.7 32.34 36.7 32.33 36.69"/><path class="cls-2" d="M32.23,36.48c.22.19.19.19.11.22l.61.17A6.23,6.23,0,0,1,32.23,36.48Z"/><path class="cls-2" d="M35,30.48l0-.2c0-.39.07-.24,0-.55,0,.76-.14.06-.11.94l0-.18s0,0,0,0c-.06-.43,0,.69-.06.63a.9.9,0,0,1,0-.32l0,.3a.64.64,0,0,1,0-.19l-.07.17v0l0,.68c0-.12,0-.15,0-.27l0,.37a1.26,1.26,0,0,1,0-.65c-.15-1,0,.37-.22-.09l.05-.23c-.11-.58-.14-.28-.27-.57a3.69,3.69,0,0,1,.24,1.18c0-.06-.06-.06-.07.23,0-.4-.08-.25-.12-.16L34.16,31a5.38,5.38,0,0,0,0,.78c-.06,0-.15-.36-.23-.69-.11.05.19.56.11.82-.12-.08-.13.21-.13.66-.09-.1-.07-.33-.13-.46l.07.5s-.05-.13-.06-.2c0,.22.13.53.12.77.16.63-.36-.7-.22.16-.06-.1-.09-.34-.16-.53a8.05,8.05,0,0,0,.17,1.27l-.17-.14a3.89,3.89,0,0,1,.38,1.14l.18.28.06.35a2.19,2.19,0,0,1-.17-.4l0,.13a2.12,2.12,0,0,1-.29-.62l.14.19c-.1-.29-.21-.61-.32-.85a1.24,1.24,0,0,1,0,.18,1,1,0,0,0-.07-.19s0,.08,0,.21l-.23-.4.08.19a1,1,0,0,0-.24,0c.15.63.45,1.33.48,1.68a4.23,4.23,0,0,0-.53-.69c.27.23,0-.37.1-.47-.06,0-.15-.13-.18-.2,0,.2.07.4.1.59-.18-.25-.16-.12-.26-.13.39.39.17.51.25.74-.14-.13-.26-.29-.18-.4-.35-.14.39.66.09.55,0,0,0,0,0-.11.09.18-.07.28-.18.15v0c-.13.19-.26.71.12.89a4.6,4.6,0,0,1-.53-.28,8.83,8.83,0,0,0,1.21.85,6,6,0,0,1-1.33-.56c-.06,0-.13,0,0,.17a1.79,1.79,0,0,1,.54.16,3,3,0,0,0-.6,0c.09,0,.61.23.56.3s-.54-.17-.58-.22a3.82,3.82,0,0,0,.46.36,1.21,1.21,0,0,0-.63-.1c.11,0-.09.2-.05.27l.16-.08c-.18.25.73.32.63.49-.12,0-.73-.07-.86.06.28.07,1.43.14,1.66.16l-.2,0,.19,0a3.77,3.77,0,0,1-1.77-.11c-.18.11-.22,0-.26.19s-.23,0-.22-.1l-.26.41c.39-.09.29.21.62.11a2.55,2.55,0,0,1-.26-.3c.37-.06,1,0,.88.2a4.23,4.23,0,0,1-.83.19c.12,0,.18.15.08.2l-.18,0c-.21.2.46,0,0,.33-.05.06-.61.4-.36.3a22.3,22.3,0,0,1,2.36-1l-.78.52c-.42.27-.9.37-1.25.59a1.66,1.66,0,0,1,.28-.09c-.12.11-.36.17-.35.26.44-.22-.12.26.36-.15.09,0-.13.17-.16.29a6.49,6.49,0,0,1,1.1-.55l-.36.25a1.43,1.43,0,0,1-.15.22c0,.06,0,.13.14.13a1.77,1.77,0,0,1-.34.33,1.73,1.73,0,0,1,.34-.19c-.22.3-.2,0-.53.4a4,4,0,0,1,.73-.39c.32-.31-.12-.06-.37.06.53-.42,1.2-.86,1.51-1.06s-.24.28-.16.22.85-.74.7-.44a6.9,6.9,0,0,1-.57.73c-.19.1,0-.17-.09-.16l0,.13c-.11.09-.25.16-.21.08-.15.24.38,0,.45.27a1,1,0,0,0,.25-.29l-.09,0c.09-.21.29-.3.28-.4.16-.15.34-.39.35-.27l-.12.31c0-.09,0-.18,0-.09.09-.13,0,.42.17,0,0-.07,0-.14,0-.21s.28-.48.29-.38c.06-.3,0,0,0-.32-.11.44-.08,0-.22.45.14-.41,0-.18.16-.53-.06.1-.09.19-.09.14l-.06.09h0l-.07.16c-.14.23-.22.22-.33.34,0-.05.09-.12.15-.22l-.16.18a2.24,2.24,0,0,1,.34-.51h0c.07-.12.1-.17,0-.08s-.27.25-.09.07l-.2.14.06-.05s-.59.37-.16,0c-.09.06-.21.13-.16.07l.27-.2h0c-.05,0,.29-.23,0-.07.72-.46.18-.15.31-.26l-.32.16s-.06,0-.17,0l-.28.12c-.21,0,.24-.19.23-.23s.07,0,0,0c.31-.11.21-.1.1-.12s-.23-.05,0-.1c-.08,0,0,0,0,0h0l.13,0h-.13s0,0-.08-.05h.25c.1,0-.11,0-.3,0l-.14,0c.4,0-.11-.09.32,0-.2-.06-.12-.14-.51-.3.05,0,.08,0,.08,0s.12-.06,0-.14l.29.08-.34-.25a.67.67,0,0,1,.5.16c-.28-.3-.08-.17-.38-.4l.18.08s-.21-.2-.06-.15c.35.14.18-.33.5-.19-.44-.51.21.18-.11-.25a1.5,1.5,0,0,1,.23.33c-.06-.21.18.16-.06-.32l.19.34s-.08-.16,0-.07l.11.22c0-.06-.26-.59-.5-1.09.13.18.12.14,0-.25a1.37,1.37,0,0,1,.18.43s.16.1,0-.38c0,.11,0,0,0-.07s0,0,.07-.13l0-.07c-.17-.66,0-.21,0-.35l0,.07c.17.35,0-.31.15.13l-.1-.44c-.18-1,.17.44.12,0l-.05-.25a14.34,14.34,0,0,1,.28,1.44c0,.1,0,.17,0,.24.1.6-.09-.67-.09-.89,0,.36.11,1,.13,1,0,.32-.09-1.34,0-.64,0-.31-.06-.6-.07-.87s.12,1.11.07,0l0,.25V33.94c.05,1.1.05.79.06.41s0-.79,0,.35l0-.24v.24c0,.16,0-.33,0-.86v.49c0,.58,0,.46.07-.49l0,.7c0-.34,0,1.19.06.54l0,.27c0-.31,0,.18,0,.45s0,.32.12-.64l.1-.39c0-.29.11-.82.13-1.2a2,2,0,0,1-.06.76v-.1c-.14,1,0,.52-.09,1.15a5.81,5.81,0,0,1,.09,1l.19-.55,0,.1c0,.14-.15.42-.16.36-.11.31.12-.17.17-.27a3.06,3.06,0,0,1-.25.58h0l0-.06c.09-.18.19-.37.2-.29a1.79,1.79,0,0,1-.14.32s0,0,0,0v.1l.17-.35c.11-.12,0,.1.23-.3-.31.61,0,.54-.1.73.19-.11.21,0,.22.06s.31-.28.3-.17c-.57.36-.19.3-.61.57.27-.19.13.11.52-.12,0,.08-.23.08-.36.19.32.11,0,.5.18.71a.85.85,0,0,1,.33-.11l-.36.28c.06,0,.49-.13.24.06.06,0,.16-.09.2-.07-.23.63.68.86.11,1.62.13-.13.17-.09.19,0s.2-.08.31-.12l-.23.31c.32-.07.1.21.4.13l-.07,0c.38,0,.73-.41,1.18-.56-.43,0,.5-.47-.13-.41.08-.07.16,0,.25-.08-.2,0-.26,0-.21-.13h0c-.13-.24,0-.41,0-.74l-.22.1c0-.07.08-.11.12-.16-.36.06.05.18-.35.25.42-.24-.15-.42.34-.67,0-.09-.24.12-.27,0l.13-.08-.19,0c0-.07.17-.17.28-.21s0,0,.07,0c.13-.14-.14-.2-.1-.25l0,.12c-.22-.21-.15-.56-.53-.74l-.1.07c-.28-.18,0-.27-.16-.52h0c-.12,0-.19,0-.21-.13.14,0,.16-.3.32-.29-.3-.16-.21,0-.6.08l.13-.18c-.15.07-.22.13-.31,0,.16,0,.18-.33.39-.37.18-.7-.46-.06-.1-.8-.4.4-.1.55-.2.59-.1.22-.31.28-.3.15s.38-.86.28-1.12c0,0,0,0,0,0,0-.26-.18,0-.1-.36-.2.34,0-.18-.27.34l.13.09c-.11,0-.41.54-.35,0a.76.76,0,0,1,.17-.23c0-.22-.08,0,0-.25.21-.55.13.17.36-.1.07-.3-.26.11,0-.4-.34.68,0-.43-.33,0l.13-.36s-.1.13-.11.06l.18-.39c-.09.1-.08,0-.08-.19s0-.35,0-.28c.13.17-.11.52-.14.88-.28.3.21-1.16,0-1.21,0,0,0,.36,0,.49a2.79,2.79,0,0,1,0-.57c-.14-.09-.08.42-.18.59.07-.53-.1.11-.17.19l.08-.39c-.08-.44-.19.76-.23.29l.14-.47-.08.05.08-.43c-.12.24-.12.12-.17-.1,0,.3-.11.7-.15.62,0-.28.06-.33,0-.4s.1-.48.09-.08l.07-.33c0-.33-.1-.21-.13-.25a.39.39,0,0,1,0,.13l-.16.36a.84.84,0,0,1,0-.35s-.06.16-.09.14a2.17,2.17,0,0,1,.11-.7,1,1,0,0,0-.14.2c0-.14,0-.39,0-.5s-.12.51-.15.25a.43.43,0,0,1,0,.12c0-.11-.07-.41-.12-.15l0-.41c0,.06,0,.52,0,.59s0-.32,0-.43c-.07.16-.07.62-.13.33C35,30.46,35,30.52,35,30.48Zm-.59.95c0-.11,0-.42,0-.2C34.51,31.72,34.48,31.52,34.43,31.43Zm-.85,3.27c0-.12,0-.11.07,0S33.63,34.74,33.58,34.7Zm.77,4.08v0Zm0,.11.08-.1c0,.06-.06.06-.07.05S34.27,38.94,34.32,38.89Zm1.39-2.43,0-.09S35.76,36.39,35.71,36.46Z"/><path class="cls-2" d="M33.49,34a1.14,1.14,0,0,1,.09.16A.31.31,0,0,0,33.49,34Z"/><polygon class="cls-2" points="35.36 30.49 35.36 30.5 35.37 30.44 35.36 30.49"/><path class="cls-2" d="M31.16,40a.9.9,0,0,1,.19-.15A.49.49,0,0,0,31.16,40Z"/><path class="cls-2" d="M34.79,38.48l0,.06s0,0,0,.08A.49.49,0,0,1,34.79,38.48Z"/><path class="cls-2" d="M35,40s0,0,0,0v-.12A.1.1,0,0,0,35,40Z"/><path class="cls-2" d="M34.54,39.28c-.07.2,0,.13.05.1h0C34.67,39.09,34.61,39.19,34.54,39.28Z"/><path class="cls-2" d="M34.6,39.37s0,0,0,0S34.63,39.34,34.6,39.37Z"/><path class="cls-2" d="M34.48,38.75c0,.06.18-.26.13-.17C34.79,38.32,34.34,38.89,34.48,38.75Z"/><polygon class="cls-2" points="34.36 39.95 34.42 39.7 34.32 39.9 34.36 39.95"/><path class="cls-2" d="M34,39.76l0,.07a.28.28,0,0,1,.06-.08S34,39.69,34,39.76Z"/><path class="cls-2" d="M34.11,39.75a.09.09,0,0,0,.09,0A.16.16,0,0,0,34.11,39.75Z"/><polygon class="cls-2" points="34.2 40.02 34.19 39.97 34.13 39.95 34.2 40.02"/><path class="cls-2" d="M33.14,39.71l-.17.08c-.1.08-.14.13-.06.1A.8.8,0,0,0,33.14,39.71Z"/><path class="cls-2" d="M32.79,40.4a.63.63,0,0,1,.12-.19l-.29.31Z"/><path class="cls-2" d="M32.34,40.47c-.1.09-.47.25-.27.23S32.39,40.54,32.34,40.47Z"/><polygon class="cls-2" points="32.33 39.24 32.32 39.26 32.98 38.95 32.33 39.24"/><path class="cls-2" d="M31.56,37.8c-.2.19.31.06.09.22.11,0,.18-.13.27-.09C31.83,37.83,31.92,37.77,31.56,37.8Z"/><path class="cls-2" d="M31.92,37.93,32,38Z"/><polygon class="cls-2" points="36.8 40.17 36.73 40.28 36.87 40.17 36.8 40.17"/><path class="cls-2" d="M37.21,40.18l-.3.13.29-.06S37.14,40.22,37.21,40.18Z"/><path class="cls-2" d="M34.14,30.55l0,.14c0,.13,0,.12.07.11Z"/><polygon class="cls-2" points="34.8 30.27 34.79 30.26 34.82 30.68 34.8 30.27"/><path class="cls-2" d="M35.16,29.8s-.09.06-.09,0S35.16,30.17,35.16,29.8Z"/><path class="cls-2" d="M43.73,45.92c0,.08.2,0,.24,0S43.68,45.94,43.73,45.92Z"/><polygon class="cls-2" points="42.77 44.73 42.85 44.73 42.58 44.6 42.77 44.73"/><path class="cls-2" d="M42.28,43.47c-.28.24.23.43.2.71l-.06.06h.31C42.58,44,42.26,43.7,42.28,43.47Z"/><path class="cls-2" d="M42.74,42.52c-.11.09-.17-.11,0,.17l0,0Z"/><path class="cls-2" d="M42.78,42.65c.06.13.08-.13,0,0Z"/><path class="cls-2" d="M42.47,42.06l.19.13c.06-.06,0-.23.09-.19C42.62,41.84,42.56,41.91,42.47,42.06Z"/><path class="cls-2" d="M42.17,42l.08.07S42.28,42,42.17,42Z"/><path class="cls-2" d="M42.43,42.21l-.18-.15s-.15.09.07.07C42.22,42.16,42.33,42.16,42.43,42.21Z"/><path class="cls-2" d="M42.42,42.34c0,.13,0,.27-.21.14C42.38,42.8,42.59,42.66,42.42,42.34Z"/><path class="cls-2" d="M41.91,43.53l0,.17.15.07C42,43.74,42,43.49,41.91,43.53Z"/><path class="cls-2" d="M42.22,40.9c-.07,0-.16.13-.25.18l.13.1C42.13,41.09,42.12,41,42.22,40.9Z"/><path class="cls-2" d="M42,41.08l-.19-.15C41.83,41.11,41.9,41.12,42,41.08Z"/><polygon class="cls-2" points="41.78 42.1 42.16 42.32 41.76 42.04 41.78 42.1"/><polygon class="cls-2" points="41.95 40.16 42.15 40.2 41.83 40.1 41.95 40.16"/><path class="cls-2" d="M41.73,39.68c.17,0,.19-.2.3-.15a.75.75,0,0,0-.38-.25C41.75,39.36,41.78,39.48,41.73,39.68Z"/><path class="cls-2" d="M41.43,39.16l.22.12A.51.51,0,0,0,41.43,39.16Z"/><path class="cls-2" d="M41.68,40.59a.32.32,0,0,0,.15-.23l-.17.15Z"/><path class="cls-2" d="M41.65,40.52h0l0-.17Z"/><path class="cls-2" d="M41.69,40.61v0S41.66,40.61,41.69,40.61Z"/><path class="cls-2" d="M41.77,41.52c-.16-.07-.37-.26-.45,0C41.49,41.58,41.54,41.41,41.77,41.52Z"/><path class="cls-2" d="M41.48,40.8l0,.22c.05,0,.12-.09.19-.05Z"/><polygon class="cls-2" points="41.38 40.72 41.48 40.8 41.47 40.72 41.38 40.72"/><path class="cls-2" d="M41.38,39.59a.51.51,0,0,1-.22-.26,1.23,1.23,0,0,0,.08.38C41.31,39.7,41.44,39.71,41.38,39.59Z"/><path class="cls-2" d="M41.5,40.05l0,0S41.46,40.06,41.5,40.05Z"/><polygon class="cls-2" points="40.75 38.25 40.72 38.28 40.75 38.27 40.75 38.25"/><path class="cls-2" d="M41.21,39.74c0,.11.06.14.15.17a.82.82,0,0,1-.12-.2S41.19,39.72,41.21,39.74Z"/><path class="cls-2" d="M41.23,38.9a1.06,1.06,0,0,0-.06.19C41.22,39,41.28,38.89,41.23,38.9Z"/><path class="cls-2" d="M41.52,40h0C41.57,39.94,41.55,40,41.52,40Z"/><path class="cls-2" d="M41.52,40a.46.46,0,0,0-.16-.07.34.34,0,0,0,.12.12Z"/><path class="cls-2" d="M39.34,38.41a.28.28,0,0,1,.33.39c.22.15.77-.22,1-.52-.09,0-.16,0-.35-.11-.07.11-.06.54-.29.44s0-.25,0-.42c-.19.2-.47-.21-.79,0l.21.19C39.48,38.38,39.37,38.33,39.34,38.41Z"/><path class="cls-2" d="M40.85,38.68l0,.07a1,1,0,0,1,.14-.39.36.36,0,0,0-.29-.09l.14.42Z"/><path class="cls-2" d="M41.05,39.13c-.23,0-.39-.16-.56,0,.11.24.23.1.38.22-.2-.38.15.07.16-.26a.72.72,0,0,1,.13.19,1.93,1.93,0,0,1,0-.24v0h0s0,0,0,0h0l-.08,0c0-.14,0,0,.08,0h0l-.27-.36A1,1,0,0,0,41.05,39.13Z"/><path class="cls-2" d="M40.81,41.51a.05.05,0,0,1,0,0S40.8,41.46,40.81,41.51Z"/><path class="cls-2" d="M40.87,41.3s.13,0,.14.11-.09,0-.16.07.22.14.25-.08h0c0-.19.18-.49.22-.47A1.46,1.46,0,0,0,40.87,41.3Z"/><path class="cls-2" d="M40.9,40.22l-.22-.29-.11.23.1,0C40.7,40.32,40.81,40.23,40.9,40.22Z"/><polygon class="cls-2" points="40.83 38.17 41.06 38.13 40.69 38.06 40.83 38.17"/><polygon class="cls-2" points="40.64 37.75 40.83 37.7 40.68 37.63 40.64 37.75"/><path class="cls-2" d="M29.94,43.87V44A.23.23,0,0,0,29.94,43.87Z"/><path class="cls-2" d="M30.22,43.17l-.08-.05C30.18,43.17,30.21,43.2,30.22,43.17Z"/><path class="cls-2" d="M33.21,28.55c-.21.06-.55.12-.37.27l.2.1A.61.61,0,0,1,33.21,28.55Z"/><path class="cls-2" d="M31.36,37l.08,0-.16-.17Z"/><path class="cls-2" d="M32.16,37.41l-.2.14A.73.73,0,0,0,32.16,37.41Z"/><path class="cls-2" d="M28.55,45a1.62,1.62,0,0,0,0-.22S28.55,44.89,28.55,45Z"/><path class="cls-2" d="M38.87,33.38a.84.84,0,0,0,0-.35C38.82,33.22,38.69,33.4,38.87,33.38Z"/><path class="cls-2" d="M27.9,42.77a.15.15,0,0,0,.09.13C28,42.83,28,42.78,27.9,42.77Z"/><path class="cls-2" d="M38.74,32.67s0,.06,0,.09a.56.56,0,0,1,.16.27C38.92,32.88,38.93,32.74,38.74,32.67Z"/><path class="cls-2" d="M40.38,42.76a.06.06,0,0,1,0,0S40.4,42.78,40.38,42.76Z"/><path class="cls-2" d="M41.15,47.37h-.27A.49.49,0,0,0,41.15,47.37Z"/><path class="cls-2" d="M40.06,36c0,.08,0,0,0,0Z"/><path class="cls-2" d="M39.43,36.74a.2.2,0,0,0-.11,0A.2.2,0,0,1,39.43,36.74Z"/><path class="cls-2" d="M37.13,32.25h0S37.11,32.27,37.13,32.25Z"/><path class="cls-2" d="M40,36.16A.32.32,0,0,0,40,36,1.13,1.13,0,0,0,40,36.16Z"/><path class="cls-2" d="M40.11,36.11v.08S40.18,36.17,40.11,36.11Z"/><path class="cls-2" d="M40,35.87A.28.28,0,0,1,40,36s0,0,0,0Z"/><path class="cls-2" d="M32,41.06l0,0C32.16,41,32.11,41,32,41.06Z"/><polygon class="cls-2" points="34.12 32.47 34.11 32.46 34.1 32.47 34.12 32.47"/><path class="cls-2" d="M34.14,32.86c-.19-.24-.13-.31,0-.39l-.62-.12Z"/><path class="cls-2" d="M29.35,45.58l.27-.16c.19.39,0,.55.35.44-.62-.28.28-.92-.34-1.2l.19-.1s0,.06,0,.1c.42-.18-.37-.39-.14-.74.1-.11.23-.17.27-.05l0-.35c0-.08.14,0,.1.06l.12-.47h0a2.21,2.21,0,0,1-.21-.4c.13-.08,0,.08.13.08L30,42.49c.21,0,.29.23.2.4.72,0-.08-.27.48-.63v.26c.42,0,.36-.25.68-.43-.14,0-.76.32-.82,0,.08-.06.14-.15.07-.34.22.08.22-.08.28-.27l.29.13c0-.23-.17-.27-.26-.43.11-.21.36-.16.58-.14.17-.33-.47.1-.37-.33.23-.24.18-.49.14-.9.18-.16.17.1.28.06l-.17-.27s.09,0,.12,0c0-.19-.29-.13-.28-.4-.31-.19.66-.3.4-.73.11,0,.17.1.3.13a2.57,2.57,0,0,0-.25-.87l.3-.2c-.3.12-.47-.25-.6-.56l-.31.08,0-.43c.06,0,.15,0,.25.16l0-.09c.16-.09.3,0,.43.2l-.23.06a1.17,1.17,0,0,0,.5.37.24.24,0,0,1,0-.15s.08.08.11.08,0-.07-.06-.16l.36,0-.12-.07.39-.4a3,3,0,0,1-.51-1.56c.19.23.38.18.67.3-.36,0,0,.47-.2.73.09-.14.21,0,.25,0l-.09-.61c.23.1.22,0,.37-.14-.51-.08-.17-.49-.23-.75.16,0,.3.16.17.39.45-.14-.42-.57,0-.72,0,.06-.06.08,0,.14-.08-.2.16-.5.26-.37l0,.06c.22-.38.48-1.23.11-1.44a4.77,4.77,0,0,1,.53.29l-1.06-1.23c.32.19,1.22.26,1.28.67a.41.41,0,0,0,.15-.43c-.07,0-.56,0-.55-.12a2.56,2.56,0,0,0,.71-.28c-.12.07-.61-.24-.53-.39.07.05.53.19.57.27a6.31,6.31,0,0,0-.39-.57c.07.12.44.19.59.23-.1,0,.07-.15,0-.23h-.14c.14-.14-.43-.75-.35-1.18h.08a2.06,2.06,0,0,0,.55.79,2.24,2.24,0,0,1-.16-.83,1.07,1.07,0,0,1,0-.25s.07-.08.13-.11l.07-.11a.89.89,0,0,1,.3-.31l.08.17.15-.1c.05,0,.35,0,.33,0l.12-.05-.19.18s-.16.07-.22.11,0,.07-.08.11l-.28.48L35,30l-.07.11s-.09.08,0,.11.09.07.09.11v.25a.41.41,0,0,1,.12.14s0,0,0,0h-.3a.1.1,0,0,1,0,.1s0,0,0,0,0,0,0,0H35c.35,0,.17,0,.21.05v0s.09,0,0,0H35l.31.05a.22.22,0,0,1,.06-.2.23.23,0,0,1,.07-.07l0,0s0,0,0,0h-.15l-.14,0c-.06,0,0,0,0,0l0,0,.06-.06a.69.69,0,0,0,.1-.17l-.12.09s-.08,0,0,0l.23,0-.08.05-.34.17a1,1,0,0,1,.24-.59c.07-.1.22-.18.13-.24a.42.42,0,0,1,.28-.06c0,.13-.37.59-.4.71a.45.45,0,0,1,.29-.17.13.13,0,0,1,0,.06l-.06,0-.13.12s0,0,.05,0,.35-.2.19.13c0,.08-.31.4-.14.28A7,7,0,0,1,37,30c0,.07-.07.83-.22,1s-.76,0-.95.25a.44.44,0,0,1,.27,0c0,.13-.28.06-.16.26.34-.09.14.45.31,0,.17.17,0,.25.13.49a1,1,0,0,1,1,.12.57.57,0,0,0-.21.15c.14.44.08.72.23,1.12-.06.07-.08.3-.25.27.08,0,.21,0,.26.16-.18.35-.14-.25-.4.06.19-.06.37.22.56.35.26-.17-.11-.43-.29-.56a1.26,1.26,0,0,1,1.27.34c.22.29-.2.24-.12.28.17.65.89.26.8.89-.17.3-.49.2-.66.32-.2-.24,0-.48-.08-.66l0,.27c-.12-.05-.25-.21-.21-.33-.16.26.36,1.06.34,1.62.11.06.26.17.33.06l-.09-.14c.14-.21.39.18.41,0,.22.15.53.3.52.63l-.26.16a.19.19,0,0,0,0-.3c.17.07-.22.59.21.58l.12-.28c.22.15.62.28.63.57.23-.22-.06,0,.2-.35-.35.31-.23-.66-.57-.24.32-.33,0-.38.28-.75-.09,0-.15.15-.19-.08H40v0h0a.42.42,0,0,1-.11.17c-.25,0-.38-.37-.53-.44s.13,0,.2-.1l-.23-.1c.2-.1.21-.47.45-.22l-.09-.27a.52.52,0,0,0-.12-.54c0-.15-.36-.23-.15-.19l-.29-.37.05,0c-.14-.43-.68-.72-.48-1.34a.8.8,0,0,1-.26-.5l.16-.12c-.13-.15,0-.61-.24-.61.41-.39-.22-.88-.28-1.29l-.24.08a4.31,4.31,0,0,0-.58-1.07l-.17.19c-.15-.12-.2-.42-.26-.79a2.15,2.15,0,0,0-.7-.1.26.26,0,0,1,.31,0,.71.71,0,0,0-.51-.16c-.7,0-.51,0-.62,0l-.19.07-.18.08c-.11,0,.06.05-.53.06a1,1,0,0,1-.56-.09c-.12.09-.25.06-.41,0h0l-.1,0-.12.07a.29.29,0,0,0,.14-.05l0,0h0a2.55,2.55,0,0,0-.11.53L33,28.92v0c-.14.12,0,.23.2.29a1.76,1.76,0,0,0,0,.33c-.37-.13,0,.5-.48.46.07.1,0,.37,0,.55a.48.48,0,0,0,.22.45s-.09,0-.07-.06c-.09.11-.18.22-.12.38l-.3-.06.28.43c-.24.1-.37.13-.53-.12.19.53,0,.38.21.85l-.18-.09c0,.13.13.42,0,.43-.46.14-.57,1.35-1.17,1.93.6.07-.37.23.05.42-.15,0-.26.06-.33-.09,0,.4-.41.46-.15.84-.14,0-.16-.15-.25-.14s.07.16,0,.17-.09-.1-.12-.18c-.12.38.26.57.62.74-.25.12-.26.22-.07.45-.14,0-.31.08-.27-.17-.06.12-.48.72-.18.84-.09,0-.09.18-.07.22a2.75,2.75,0,0,0-.25.59l.08-.06c.32.25,0,.27-.05.52l0,0c-.46.43,0,.28-.45.68l.23.06c.46.23-.46.35-.39.72l.17-.06c.1.23-.83.21-.95.35s-.05-.08-.06-.15c-.45.33.27.17.22.52-.19,0-.38-.23-.49,0s.27.83-.14,1c.14,0,.29,0,.32.15s-.69.44-.39.8H28c0,.21,0,.63.12.82-.84-.14-.05,1.23-.76,1l-.16.55-.07,0a.57.57,0,0,0,.07.7c-.08.06-.12,0-.16-.05s-.14.19-.18.26l-.58,1,1.42.23c.28,0,.39,0,.74-.33l0,.24c.05-.07.35,0,.72.11a2.09,2.09,0,0,0,1.19,0,.09.09,0,0,1,0,.11l.21,0a4.94,4.94,0,0,1,.61-1.13c.21-.37.33-.79,0-1l-.08-.44c-.23.45-.34-.21-.55-.06,0-.21.43-.39.39-.15l-.06,0c.42.24.37-.53.67-.41a5.77,5.77,0,0,1,.22-.58,2.82,2.82,0,0,1,.24-.47l.31-.46.24,0c-.07-.12-.14-.24-.23-.37l.22,0c.08.08.14.28,0,.27.12.2.13-.18.14-.26.27.15,0,.43.07.44l.07,0,0,0c.07-.15,0-.31.29-.29s.1.22.16.24,0,0,.11,0l.41,0-.16-.29c.18-.14.38,0,.19-.31.28.5,1.53.18,1.7.34a1,1,0,0,1,.82-.18c-.08-.06-.12-.39.15-.35-.1.67.49.29.7.77-.11-.16.15-.18.23-.21s.21-.09.15-.32c.14.05,0,.25,0,.41a.4.4,0,0,1,.45,0c0,.22,0,.42.08.53s.17-.17.32-.15c-.1.15-.22.23-.33.38.09.1.52-.07.32.26.06-.06.14-.15.2-.07a4.21,4.21,0,0,0,.48,1.57c.1.2.26.58.4,1a8.29,8.29,0,0,1,.34,1.18,3.89,3.89,0,0,1,.85.29c-.21-.17,0-.19.19-.2-.12,0,.07-.21.08-.33q.32.16.72.33c.16-.33.6,0,.68-.34l-.18.06c.23-.38-.32-.83-.29-1.31-.15.21-.25.06-.35-.08s-.13-.24-.42.06c0-.1.13-.15.15-.27-.13.17-.24.23-.33.19V45.6l.05,0a.93.93,0,0,1-.11-.5,1.94,1.94,0,0,1,0-.24c0-.13,0-.31-.07-.49l-.2.13a.54.54,0,0,1,0-.31c-.4,0,.15.44-.28.42.37-.38-.4-1.08.06-1.41-.09-.24-.23.16-.32-.07l.12-.12h-.2a.35.35,0,0,1,.23-.36s.07.09.09.13c.12-.18-.35-.76-.33-.88l.05.41c-.26-.5-.46-1.08-.69-1.66a6.2,6.2,0,0,0-1.64.19l0,.11c-.73.21-.51-.12-1.1,0l0,0a.53.53,0,0,1-.41.15c.14-.13-.26-.25-.08-.4-.55.22-.27.18-.63.59L35.53,41c-.12.17-.13.26-.41.31.23-.16-.18-.28.08-.49-.58-.41-.87.41-1.13-.19-.27.52.5.29.35.4.13.16-.22.38-.4.33s-.32-.66-.79-.65c.05,0,.05,0,.1,0s-.17,0-.26,0a.35.35,0,0,1-.37,0c-.15.31-.43,0-.4.38l.58-.09c-.37.1-.51.57-1.06.34,0-.08.11-.18.2-.24-.2-.12-.27.08-.49,0-.14-.4.69-.09,1-.39-.24-.17-.69.28-.61-.14-.06.27-.22.25-.44.22s-.48-.08-.58.11v0l-.09-.14-.06-.11h0a1.83,1.83,0,0,1,0,.47c-.05-.16-.1-.34-.14-.53.06.62-.45.59-.49,1.11.29-.83.3,0,.56-.18,0,.54-.2.55-.41.61a.66.66,0,0,0-.33.17,1,1,0,0,0-.16.22.79.79,0,0,0-.08.23c0-.05.06-.12.13-.16s.17-.09.18,0a.81.81,0,0,1-.38.29c-.12.47.25,0,.32.26-.33,0,0,.25.05.48l-.23-.08c-.32.45.43.3.09.7l-.25-.31v.27l-.24-.14c.1.32,0,.39-.14.61.18,0,.39.22.35.34s-.19-.15-.22,0c-.11-.13-.28-.23-.05-.19a2.12,2.12,0,0,0-.2-.12c-.17,0-.08.1-.09.15a.06.06,0,0,1,.06,0,1.82,1.82,0,0,1,.2.42.38.38,0,0,1-.17-.2c0,.05.08.18.07.26a5.54,5.54,0,0,1-.34-.51,1.34,1.34,0,0,1,.09.24v0a1.85,1.85,0,0,1-.23-.3c-.05-.06,0,0,0,.13s-.06.17-.12.1,0,.07-.06.1c-.26,0-.5-.21-.8-.12L29,46.91a.53.53,0,0,0,0-.21l.41-.07c0-.31-.52.11-.47-.4s.33,0,.46-.1c-.1-.22-.33-.64.06-.84C29.44,45.42,29.36,45.48,29.35,45.58Zm1.17-3.49c0,.08.12.27,0,.27C30.26,42.18,30.41,42.17,30.52,42.09ZM32,36.65c.05.08,0,.14-.13.19A.26.26,0,0,1,32,36.65Zm7.51-1.59h0C39.51,34.87,39.5,34.94,39.5,35.06Zm0,.35a.1.1,0,0,0,.1,0c-.07,0-.1-.06-.11-.15S39.43,35.33,39.52,35.41Zm-6.23,7.27-.06-.06C33.37,42.55,33.33,42.61,33.29,42.68Z"/><path class="cls-2" d="M32.07,37.36l-.13,0S32,37.4,32.07,37.36Z"/><polygon class="cls-2" points="28.55 45.04 28.55 45.05 28.55 45 28.55 45.04"/><path class="cls-2" d="M35.77,31.36a.34.34,0,0,1,.07-.17C35.78,31.21,35.75,31.26,35.77,31.36Z"/><path class="cls-2" d="M40.53,36.89l-.14-.17a.2.2,0,0,1,0,.2S40.5,36.83,40.53,36.89Z"/><path class="cls-2" d="M39.8,39.14s0,.06.06.08l.1,0C39.91,39.05,39.79,39,39.8,39.14Z"/><path class="cls-2" d="M39.85,37.36c-.18.09-.07.19,0,.32v0C40.14,37.59,40,37.48,39.85,37.36Z"/><path class="cls-2" d="M39.89,37.71a.31.31,0,0,1,0,.12C40.05,37.81,39.94,37.77,39.89,37.71Z"/><path class="cls-2" d="M39.79,35.75c0,.08.26,0,.2,0C40.26,35.74,39.53,35.44,39.79,35.75Z"/><polygon class="cls-2" points="39.27 37.72 39.49 37.58 39.27 37.57 39.27 37.72"/><path class="cls-2" d="M39,36.56l0,.24a.09.09,0,0,1,.11,0C39.1,36.69,39.09,36.52,39,36.56Z"/><path class="cls-2" d="M39.15,36.83c0,.07.05.14.1.16A.5.5,0,0,0,39.15,36.83Z"/><polygon class="cls-2" points="39.09 37.44 39.11 37.36 39.07 37.19 39.09 37.44"/><path class="cls-2" d="M38.15,34.16,38,34c-.09,0-.11.09,0,.16S38.09,34.23,38.15,34.16Z"/><path class="cls-2" d="M37.79,35.14c0-.09.08-.11.14-.18l-.29.11Z"/><path class="cls-2" d="M37.46,34.46c-.09,0-.37-.26-.23,0C37.32,34.49,37.48,34.71,37.46,34.46Z"/><path class="cls-2" d="M36.43,30.7l0,.05.46-.24Z"/><path class="cls-2" d="M35,31.08c.12,0-.21-.29-.08-.26h0a.28.28,0,0,0-.06-.08s-.08,0-.13-.08C34.82,30.87,34.76,30.83,35,31.08Z"/><path class="cls-2" d="M34.76,30.67l0-.12C34.74,30.6,34.75,30.64,34.76,30.67Z"/><polygon class="cls-2" points="42.08 47.64 42.27 47.74 42.15 47.58 42.08 47.64"/><path class="cls-2" d="M42.46,47.26l0,.33.12-.3S42.49,47.34,42.46,47.26Z"/><path class="cls-2" d="M31.33,41.81l-.07,0c-.09,0-.11,0-.15.12Z"/><polygon class="cls-2" points="30.15 44.22 30.17 44.18 29.86 44.15 30.15 44.22"/><path class="cls-2" d="M29.69,46.45c0-.09,0-.21.07-.29C29.74,46.36,29.34,46.34,29.69,46.45Z"/><text class="cls-4" transform="translate(62.03 39.55)">D<tspan class="cls-5" x="27.4" y="0">AREN H</tspan><tspan class="cls-6" x="173.27" y="0">U</tspan><tspan class="cls-7" x="200.59" y="0">A</tspan></text></g></g></svg>